<?xml version="1.0" encoding="UTF-8"?> <svg xmlns="http://www.w3.org/2000/svg" width="1440" height="821" fill="none"><g clip-path="url(#a)"><path stroke="url(#b)" stroke-opacity=".6" stroke-width=".805" d="M1033.58-69.095h-29.68v29.682m29.68-29.682v29.682m0-29.682h29.69m-29.69 29.682h-29.68m29.68 0v29.682m0-29.682h29.69m-59.37 0v29.682m29.68 0h-29.68m29.68 0v29.682m0-29.682h29.69m-59.37 0v29.682m29.68 0h-29.68m29.68 0v29.682m0-29.682h29.69m-59.37 0v29.682m29.68 0h-29.68m29.68 0v29.683m0-29.683h29.69m-59.37 0v29.683m29.68 0h-29.68m29.68 0v29.682m0-29.682h29.69m-59.37 0v29.682m29.68 0h-29.68m29.68 0v29.682m0-29.682h29.69m-59.37 0v29.682m29.68 0h-29.68m29.68 0v29.682m0-29.682h29.69m-59.37 0v29.682m29.68 0h-29.68m29.68 0v29.682m0-29.682h29.69m-59.37 0v29.682m29.68 0h-29.68m29.68 0v29.683m0-29.683h29.69m-59.37 0v29.683m29.68 0h-29.68m29.68 0v29.682m0-29.682h29.69m-59.37 0v29.682m29.68 0h-29.68m29.68 0v29.682m0-29.682h29.69m-59.37 0v29.682m29.68 0h-29.68m29.68 0v29.682m0-29.682h29.69m-59.37 0v29.682m29.68 0h-29.68m29.68 0v29.682m0-29.682h29.69m-59.37 0v29.682m29.68 0h-29.68m29.68 0v29.683m0-29.683h29.69m-59.37 0v29.683m29.68 0h-29.68m29.68 0v29.682m0-29.682h29.69m-59.37 0v29.682m29.68 0h-29.68m29.68 0v29.682m0-29.682h29.69m-59.37 0v29.682m29.68 0h-29.68m29.68 0v29.682m0-29.682h29.69m-59.37 0v29.682m29.68 0h-29.68m29.68 0v29.682m0-29.682h29.69m-59.37 0v29.682m29.68 0h-29.68m29.68 0v29.683m0-29.683h29.69m-59.37 0v29.683h29.68m0 0h29.69m0-593.644v29.682m0-29.682h29.68m-29.68 29.682v29.682m0-29.682h29.68m-29.68 29.682v29.682m0-29.682h29.68m-29.68 29.682v29.682m0-29.682h29.68m-29.68 29.682v29.683m0-29.683h29.68m-29.68 29.683v29.682m0-29.682h29.68m-29.68 29.682v29.682m0-29.682h29.68m-29.68 29.682v29.682m0-29.682h29.68m-29.68 29.682v29.682m0-29.682h29.68m-29.68 29.682v29.683m0-29.683h29.68m-29.68 29.683v29.682m0-29.682h29.68m-29.68 29.682v29.682m0-29.682h29.68m-29.68 29.682v29.682m0-29.682h29.68m-29.68 29.682v29.682m0-29.682h29.68m-29.68 29.682v29.683m0-29.683h29.68m-29.68 29.683v29.682m0-29.682h29.68m-29.68 29.682v29.682m0-29.682h29.68m-29.68 29.682v29.682m0-29.682h29.68m-29.68 29.682v29.682m0-29.682h29.68m-29.68 29.682v29.683m0-29.683h29.68m-29.68 29.683h29.68m0-593.644v29.682m0-29.682h29.68m-29.68 29.682v29.682m0-29.682h29.68m-29.68 29.682v29.682m0-29.682h29.68m-29.68 29.682v29.682m0-29.682h29.68m-29.68 29.682v29.683m0-29.683h29.68m-29.68 29.683v29.682m0-29.682h29.68m-29.68 29.682v29.682m0-29.682h29.68m-29.68 29.682v29.682m0-29.682h29.68m-29.68 29.682v29.682m0-29.682h29.68m-29.68 29.682v29.683m0-29.683h29.68m-29.68 29.683v29.682m0-29.682h29.68m-29.68 29.682v29.682m0-29.682h29.68m-29.68 29.682v29.682m0-29.682h29.68m-29.68 29.682v29.682m0-29.682h29.68m-29.68 29.682v29.683m0-29.683h29.68m-29.68 29.683v29.682m0-29.682h29.68m-29.68 29.682v29.682m0-29.682h29.68m-29.68 29.682v29.682m0-29.682h29.68m-29.68 29.682v29.682m0-29.682h29.68m-29.68 29.682v29.683m0-29.683h29.68m-29.68 29.683h29.68m0-593.644v29.682m0-29.682h29.68m-29.68 29.682v29.682m0-29.682h29.68m-29.68 29.682v29.682m0-29.682h29.68m-29.68 29.682v29.682m0-29.682h29.68m-29.68 29.682v29.683m0-29.683h29.68m-29.68 29.683v29.682m0-29.682h29.68m-29.68 29.682v29.682m0-29.682h29.68m-29.68 29.682v29.682m0-29.682h29.68m-29.68 29.682v29.682m0-29.682h29.68m-29.68 29.682v29.683m0-29.683h29.68m-29.68 29.683v29.682m0-29.682h29.68m-29.68 29.682v29.682m0-29.682h29.68m-29.68 29.682v29.682m0-29.682h29.68m-29.68 29.682v29.682m0-29.682h29.68m-29.68 29.682v29.683m0-29.683h29.68m-29.68 29.683v29.682m0-29.682h29.68m-29.68 29.682v29.682m0-29.682h29.68m-29.68 29.682v29.682m0-29.682h29.68m-29.68 29.682v29.682m0-29.682h29.68m-29.68 29.682v29.683m0-29.683h29.68m-29.68 29.683h29.68m0-593.644v29.682m0-29.682H1182m-29.69 29.682v29.682m0-29.682H1182m-29.69 29.682v29.682m0-29.682H1182m-29.69 29.682v29.682m0-29.682H1182m-29.69 29.682v29.683m0-29.683H1182m-29.69 29.683v29.682m0-29.682H1182m-29.69 29.682v29.682m0-29.682H1182m-29.69 29.682v29.682m0-29.682H1182m-29.69 29.682v29.682m0-29.682H1182m-29.69 29.682v29.683m0-29.683H1182m-29.69 29.683v29.682m0-29.682H1182m-29.69 29.682v29.682m0-29.682H1182m-29.69 29.682v29.682m0-29.682H1182m-29.69 29.682v29.682m0-29.682H1182m-29.69 29.682v29.683m0-29.683H1182m-29.69 29.683v29.682m0-29.682H1182m-29.69 29.682v29.682m0-29.682H1182m-29.69 29.682v29.682m0-29.682H1182m-29.69 29.682v29.682m0-29.682H1182m-29.69 29.682v29.683m0-29.683H1182m-29.69 29.683H1182m0-593.644v29.682m0-29.682h29.68M1182-39.413v29.682m0-29.682h29.68M1182-9.731v29.682m0-29.682h29.68M1182 19.951v29.682m0-29.682h29.68M1182 49.633v29.683m0-29.683h29.68M1182 79.316v29.682m0-29.682h29.68M1182 108.998v29.682m0-29.682h29.68M1182 138.68v29.682m0-29.682h29.68M1182 168.362v29.682m0-29.682h29.68M1182 198.044v29.683m0-29.683h29.68M1182 227.727v29.682m0-29.682h29.68M1182 257.409v29.682m0-29.682h29.68M1182 287.091v29.682m0-29.682h29.68M1182 316.773v29.682m0-29.682h29.68M1182 346.455v29.683m0-29.683h29.68M1182 376.138v29.682m0-29.682h29.68M1182 405.82v29.682m0-29.682h29.68M1182 435.502v29.682m0-29.682h29.68M1182 465.184v29.682m0-29.682h29.68M1182 494.866v29.683m0-29.683h29.68M1182 524.549h29.68m0-593.644v29.682m0-29.682h29.68m-29.68 29.682v29.682m0-29.682h29.68m-29.68 29.682v29.682m0-29.682h29.68m-29.68 29.682v29.682m0-29.682h29.68m-29.68 29.682v29.683m0-29.683h29.68m-29.68 29.683v29.682m0-29.682h29.68m-29.68 29.682v29.682m0-29.682h29.68m-29.68 29.682v29.682m0-29.682h29.68m-29.68 29.682v29.682m0-29.682h29.68m-29.68 29.682v29.683m0-29.683h29.68m-29.68 29.683v29.682m0-29.682h29.68m-29.68 29.682v29.682m0-29.682h29.68m-29.68 29.682v29.682m0-29.682h29.68m-29.68 29.682v29.682m0-29.682h29.68m-29.68 29.682v29.683m0-29.683h29.68m-29.68 29.683v29.682m0-29.682h29.68m-29.68 29.682v29.682m0-29.682h29.68m-29.68 29.682v29.682m0-29.682h29.68m-29.68 29.682v29.682m0-29.682h29.68m-29.68 29.682v29.683m0-29.683h29.68m-29.68 29.683h29.68m0-593.644v29.682m0-29.682h29.68m-29.68 29.682v29.682m0-29.682h29.68m-29.68 29.682v29.682m0-29.682h29.68m-29.68 29.682v29.682m0-29.682h29.68m-29.68 29.682v29.683m0-29.683h29.68m-29.68 29.683v29.682m0-29.682h29.68m-29.68 29.682v29.682m0-29.682h29.68m-29.68 29.682v29.682m0-29.682h29.68m-29.68 29.682v29.682m0-29.682h29.68m-29.68 29.682v29.683m0-29.683h29.68m-29.68 29.683v29.682m0-29.682h29.68m-29.68 29.682v29.682m0-29.682h29.68m-29.68 29.682v29.682m0-29.682h29.68m-29.68 29.682v29.682m0-29.682h29.68m-29.68 29.682v29.683m0-29.683h29.68m-29.68 29.683v29.682m0-29.682h29.68m-29.68 29.682v29.682m0-29.682h29.68m-29.68 29.682v29.682m0-29.682h29.68m-29.68 29.682v29.682m0-29.682h29.68m-29.68 29.682v29.683m0-29.683h29.68m-29.68 29.683h29.68m0-593.644v29.682m0-29.682h29.68m-29.68 29.682v29.682m0-29.682h29.68m-29.68 29.682v29.682m0-29.682h29.68m-29.68 29.682v29.682m0-29.682h29.68m-29.68 29.682v29.683m0-29.683h29.68m-29.68 29.683v29.682m0-29.682h29.68m-29.68 29.682v29.682m0-29.682h29.68m-29.68 29.682v29.682m0-29.682h29.68m-29.68 29.682v29.682m0-29.682h29.68m-29.68 29.682v29.683m0-29.683h29.68m-29.68 29.683v29.682m0-29.682h29.68m-29.68 29.682v29.682m0-29.682h29.68m-29.68 29.682v29.682m0-29.682h29.68m-29.68 29.682v29.682m0-29.682h29.68m-29.68 29.682v29.683m0-29.683h29.68m-29.68 29.683v29.682m0-29.682h29.68m-29.68 29.682v29.682m0-29.682h29.68m-29.68 29.682v29.682m0-29.682h29.68m-29.68 29.682v29.682m0-29.682h29.68m-29.68 29.682v29.683m0-29.683h29.68m-29.68 29.683h29.68m0-593.644v29.682m0-29.682h29.69m-29.69 29.682v29.682m0-29.682h29.69m-29.69 29.682v29.682m0-29.682h29.69m-29.69 29.682v29.682m0-29.682h29.69m-29.69 29.682v29.683m0-29.683h29.69m-29.69 29.683v29.682m0-29.682h29.69m-29.69 29.682v29.682m0-29.682h29.69m-29.69 29.682v29.682m0-29.682h29.69m-29.69 29.682v29.682m0-29.682h29.69m-29.69 29.682v29.683m0-29.683h29.69m-29.69 29.683v29.682m0-29.682h29.69m-29.69 29.682v29.682m0-29.682h29.69m-29.69 29.682v29.682m0-29.682h29.69m-29.69 29.682v29.682m0-29.682h29.69m-29.69 29.682v29.683m0-29.683h29.69m-29.69 29.683v29.682m0-29.682h29.69m-29.69 29.682v29.682m0-29.682h29.69m-29.69 29.682v29.682m0-29.682h29.69m-29.69 29.682v29.682m0-29.682h29.69m-29.69 29.682v29.683m0-29.683h29.69m-29.69 29.683h29.69m0-593.644v29.682m0-29.682h29.68m-29.68 29.682v29.682m0-29.682h29.68m-29.68 29.682v29.682m0-29.682h29.68m-29.68 29.682v29.682m0-29.682h29.68m-29.68 29.682v29.683m0-29.683h29.68m-29.68 29.683v29.682m0-29.682h29.68m-29.68 29.682v29.682m0-29.682h29.68m-29.68 29.682v29.682m0-29.682h29.68m-29.68 29.682v29.682m0-29.682h29.68m-29.68 29.682v29.683m0-29.683h29.68m-29.68 29.683v29.682m0-29.682h29.68m-29.68 29.682v29.682m0-29.682h29.68m-29.68 29.682v29.682m0-29.682h29.68m-29.68 29.682v29.682m0-29.682h29.68m-29.68 29.682v29.683m0-29.683h29.68m-29.68 29.683v29.682m0-29.682h29.68m-29.68 29.682v29.682m0-29.682h29.68m-29.68 29.682v29.682m0-29.682h29.68m-29.68 29.682v29.682m0-29.682h29.68m-29.68 29.682v29.683m0-29.683h29.68m-29.68 29.683h29.68m0-593.644v29.682m0-29.682h29.68m-29.68 29.682v29.682m0-29.682h29.68m-29.68 29.682v29.682m0-29.682h29.68m-29.68 29.682v29.682m0-29.682h29.68m-29.68 29.682v29.683m0-29.683h29.68m-29.68 29.683v29.682m0-29.682h29.68m-29.68 29.682v29.682m0-29.682h29.68m-29.68 29.682v29.682m0-29.682h29.68m-29.68 29.682v29.682m0-29.682h29.68m-29.68 29.682v29.683m0-29.683h29.68m-29.68 29.683v29.682m0-29.682h29.68m-29.68 29.682v29.682m0-29.682h29.68m-29.68 29.682v29.682m0-29.682h29.68m-29.68 29.682v29.682m0-29.682h29.68m-29.68 29.682v29.683m0-29.683h29.68m-29.68 29.683v29.682m0-29.682h29.68m-29.68 29.682v29.682m0-29.682h29.68m-29.68 29.682v29.682m0-29.682h29.68m-29.68 29.682v29.682m0-29.682h29.68m-29.68 29.682v29.683m0-29.683h29.68m-29.68 29.683h29.68m0-593.644v29.682m0-29.682h29.68m-29.68 29.682v29.682m0-29.682h29.68m-29.68 29.682v29.682m0-29.682h29.68m-29.68 29.682v29.682m0-29.682h29.68m-29.68 29.682v29.683m0-29.683h29.68m-29.68 29.683v29.682m0-29.682h29.68m-29.68 29.682v29.682m0-29.682h29.68m-29.68 29.682v29.682m0-29.682h29.68m-29.68 29.682v29.682m0-29.682h29.68m-29.68 29.682v29.683m0-29.683h29.68m-29.68 29.683v29.682m0-29.682h29.68m-29.68 29.682v29.682m0-29.682h29.68m-29.68 29.682v29.682m0-29.682h29.68m-29.68 29.682v29.682m0-29.682h29.68m-29.68 29.682v29.683m0-29.683h29.68m-29.68 29.683v29.682m0-29.682h29.68m-29.68 29.682v29.682m0-29.682h29.68m-29.68 29.682v29.682m0-29.682h29.68m-29.68 29.682v29.682m0-29.682h29.68m-29.68 29.682v29.683m0-29.683h29.68m-29.68 29.683h29.68m0-593.644v29.682m0-29.682h29.69m-29.69 29.682v29.682m0-29.682h29.69m-29.69 29.682v29.682m0-29.682h29.69m-29.69 29.682v29.682m0-29.682h29.69m-29.69 29.682v29.683m0-29.683h29.69m-29.69 29.683v29.682m0-29.682h29.69m-29.69 29.682v29.682m0-29.682h29.69m-29.69 29.682v29.682m0-29.682h29.69m-29.69 29.682v29.682m0-29.682h29.69m-29.69 29.682v29.683m0-29.683h29.69m-29.69 29.683v29.682m0-29.682h29.69m-29.69 29.682v29.682m0-29.682h29.69m-29.69 29.682v29.682m0-29.682h29.69m-29.69 29.682v29.682m0-29.682h29.69m-29.69 29.682v29.683m0-29.683h29.69m-29.69 29.683v29.682m0-29.682h29.69m-29.69 29.682v29.682m0-29.682h29.69m-29.69 29.682v29.682m0-29.682h29.69m-29.69 29.682v29.682m0-29.682h29.69m-29.69 29.682v29.683m0-29.683h29.69m-29.69 29.683h29.69m0-593.644v29.682m0-29.682h29.68m-29.68 29.682v29.682m0-29.682h29.68m-29.68 29.682v29.682m0-29.682h29.68m-29.68 29.682v29.682m0-29.682h29.68m-29.68 29.682v29.683m0-29.683h29.68m-29.68 29.683v29.682m0-29.682h29.68m-29.68 29.682v29.682m0-29.682h29.68m-29.68 29.682v29.682m0-29.682h29.68m-29.68 29.682v29.682m0-29.682h29.68m-29.68 29.682v29.683m0-29.683h29.68m-29.68 29.683v29.682m0-29.682h29.68m-29.68 29.682v29.682m0-29.682h29.68m-29.68 29.682v29.682m0-29.682h29.68m-29.68 29.682v29.682m0-29.682h29.68m-29.68 29.682v29.683m0-29.683h29.68m-29.68 29.683v29.682m0-29.682h29.68m-29.68 29.682v29.682m0-29.682h29.68m-29.68 29.682v29.682m0-29.682h29.68m-29.68 29.682v29.682m0-29.682h29.68m-29.68 29.682v29.683m0-29.683h29.68m-29.68 29.683h29.68m0-593.644v29.682m0-29.682h29.68m-29.68 29.682v29.682m0-29.682h29.68m-29.68 29.682v29.682m0-29.682h29.68m-29.68 29.682v29.682m0-29.682h29.68m-29.68 29.682v29.683m0-29.683h29.68m-29.68 29.683v29.682m0-29.682h29.68m-29.68 29.682v29.682m0-29.682h29.68m-29.68 29.682v29.682m0-29.682h29.68m-29.68 29.682v29.682m0-29.682h29.68m-29.68 29.682v29.683m0-29.683h29.68m-29.68 29.683v29.682m0-29.682h29.68m-29.68 29.682v29.682m0-29.682h29.68m-29.68 29.682v29.682m0-29.682h29.68m-29.68 29.682v29.682m0-29.682h29.68m-29.68 29.682v29.683m0-29.683h29.68m-29.68 29.683v29.682m0-29.682h29.68m-29.68 29.682v29.682m0-29.682h29.68m-29.68 29.682v29.682m0-29.682h29.68m-29.68 29.682v29.682m0-29.682h29.68m-29.68 29.682v29.683m0-29.683h29.68m-29.68 29.683h29.68m0-593.644v29.682m0-29.682h29.68m-29.68 29.682v29.682m0-29.682h29.68M1508.5-9.731v29.682m0-29.682h29.68m-29.68 29.682v29.682m0-29.682h29.68m-29.68 29.682v29.683m0-29.683h29.68m-29.68 29.683v29.682m0-29.682h29.68m-29.68 29.682v29.682m0-29.682h29.68m-29.68 29.682v29.682m0-29.682h29.68m-29.68 29.682v29.682m0-29.682h29.68m-29.68 29.682v29.683m0-29.683h29.68m-29.68 29.683v29.682m0-29.682h29.68m-29.68 29.682v29.682m0-29.682h29.68m-29.68 29.682v29.682m0-29.682h29.68m-29.68 29.682v29.682m0-29.682h29.68m-29.68 29.682v29.683m0-29.683h29.68m-29.68 29.683v29.682m0-29.682h29.68m-29.68 29.682v29.682m0-29.682h29.68m-29.68 29.682v29.682m0-29.682h29.68m-29.68 29.682v29.682m0-29.682h29.68m-29.68 29.682v29.683m0-29.683h29.68m-29.68 29.683h29.68m0-593.644v29.682m0-29.682h29.68m-29.68 29.682v29.682m0-29.682h29.68m-29.68 29.682v29.682m0-29.682h29.68m-29.68 29.682v29.682m0-29.682h29.68m-29.68 29.682v29.683m0-29.683h29.68m-29.68 29.683v29.682m0-29.682h29.68m-29.68 29.682v29.682m0-29.682h29.68m-29.68 29.682v29.682m0-29.682h29.68m-29.68 29.682v29.682m0-29.682h29.68m-29.68 29.682v29.683m0-29.683h29.68m-29.68 29.683v29.682m0-29.682h29.68m-29.68 29.682v29.682m0-29.682h29.68m-29.68 29.682v29.682m0-29.682h29.68m-29.68 29.682v29.682m0-29.682h29.68m-29.68 29.682v29.683m0-29.683h29.68m-29.68 29.683v29.682m0-29.682h29.68m-29.68 29.682v29.682m0-29.682h29.68m-29.68 29.682v29.682m0-29.682h29.68m-29.68 29.682v29.682m0-29.682h29.68m-29.68 29.682v29.683m0-29.683h29.68m-29.68 29.683h29.68m0-593.644v29.682m0-29.682h29.69m-29.69 29.682v29.682m0-29.682h29.69m-29.69 29.682v29.682m0-29.682h29.69m-29.69 29.682v29.682m0-29.682h29.69m-29.69 29.682v29.683m0-29.683h29.69m-29.69 29.683v29.682m0-29.682h29.69m-29.69 29.682v29.682m0-29.682h29.69m-29.69 29.682v29.682m0-29.682h29.69m-29.69 29.682v29.682m0-29.682h29.69m-29.69 29.682v29.683m0-29.683h29.69m-29.69 29.683v29.682m0-29.682h29.69m-29.69 29.682v29.682m0-29.682h29.69m-29.69 29.682v29.682m0-29.682h29.69m-29.69 29.682v29.682m0-29.682h29.69m-29.69 29.682v29.683m0-29.683h29.69m-29.69 29.683v29.682m0-29.682h29.69m-29.69 29.682v29.682m0-29.682h29.69m-29.69 29.682v29.682m0-29.682h29.69m-29.69 29.682v29.682m0-29.682h29.69m-29.69 29.682v29.683m0-29.683h29.69m-29.69 29.683h29.69m0-593.644v29.682m0-29.682h29.68m-29.68 29.682v29.682m0-29.682h29.68m-29.68 29.682v29.682m0-29.682h29.68m-29.68 29.682v29.682m0-29.682h29.68m-29.68 29.682v29.683m0-29.683h29.68m-29.68 29.683v29.682m0-29.682h29.68m-29.68 29.682v29.682m0-29.682h29.68m-29.68 29.682v29.682m0-29.682h29.68m-29.68 29.682v29.682m0-29.682h29.68m-29.68 29.682v29.683m0-29.683h29.68m-29.68 29.683v29.682m0-29.682h29.68m-29.68 29.682v29.682m0-29.682h29.68m-29.68 29.682v29.682m0-29.682h29.68m-29.68 29.682v29.682m0-29.682h29.68m-29.68 29.682v29.683m0-29.683h29.68m-29.68 29.683v29.682m0-29.682h29.68m-29.68 29.682v29.682m0-29.682h29.68m-29.68 29.682v29.682m0-29.682h29.68m-29.68 29.682v29.682m0-29.682h29.68m-29.68 29.682v29.683m0-29.683h29.68m-29.68 29.683h29.68m0-593.644v29.682m0-29.682h29.68m-29.68 29.682v29.682m0-29.682h29.68m-29.68 29.682v29.682m0-29.682h29.68m-29.68 29.682v29.682m0-29.682h29.68m-29.68 29.682v29.683m0-29.683h29.68m-29.68 29.683v29.682m0-29.682h29.68m-29.68 29.682v29.682m0-29.682h29.68m-29.68 29.682v29.682m0-29.682h29.68m-29.68 29.682v29.682m0-29.682h29.68m-29.68 29.682v29.683m0-29.683h29.68m-29.68 29.683v29.682m0-29.682h29.68m-29.68 29.682v29.682m0-29.682h29.68m-29.68 29.682v29.682m0-29.682h29.68m-29.68 29.682v29.682m0-29.682h29.68m-29.68 29.682v29.683m0-29.683h29.68m-29.68 29.683v29.682m0-29.682h29.68m-29.68 29.682v29.682m0-29.682h29.68m-29.68 29.682v29.682m0-29.682h29.68m-29.68 29.682v29.682m0-29.682h29.68m-29.68 29.682v29.683m0-29.683h29.68m-29.68 29.683h29.68m0-593.644v29.682m0-29.682h29.68m-29.68 29.682v29.682m0-29.682h29.68m-29.68 29.682v29.682m0-29.682h29.68m-29.68 29.682v29.682m0-29.682h29.68m-29.68 29.682v29.683m0-29.683h29.68m-29.68 29.683v29.682m0-29.682h29.68m-29.68 29.682v29.682m0-29.682h29.68m-29.68 29.682v29.682m0-29.682h29.68m-29.68 29.682v29.682m0-29.682h29.68m-29.68 29.682v29.683m0-29.683h29.68m-29.68 29.683v29.682m0-29.682h29.68m-29.68 29.682v29.682m0-29.682h29.68m-29.68 29.682v29.682m0-29.682h29.68m-29.68 29.682v29.682m0-29.682h29.68m-29.68 29.682v29.683m0-29.683h29.68m-29.68 29.683v29.682m0-29.682h29.68m-29.68 29.682v29.682m0-29.682h29.68m-29.68 29.682v29.682m0-29.682h29.68m-29.68 29.682v29.682m0-29.682h29.68m-29.68 29.682v29.683m0-29.683h29.68m-29.68 29.683h29.68m0-593.644v29.682m0-29.682h29.68m-29.68 29.682v29.682m0-29.682h29.68m-29.68 29.682v29.682m0-29.682h29.68m-29.68 29.682v29.682m0-29.682h29.68m-29.68 29.682v29.683m0-29.683h29.68m-29.68 29.683v29.682m0-29.682h29.68m-29.68 29.682v29.682m0-29.682h29.68m-29.68 29.682v29.682m0-29.682h29.68m-29.68 29.682v29.682m0-29.682h29.68m-29.68 29.682v29.683m0-29.683h29.68m-29.68 29.683v29.682m0-29.682h29.68m-29.68 29.682v29.682m0-29.682h29.68m-29.68 29.682v29.682m0-29.682h29.68m-29.68 29.682v29.682m0-29.682h29.68m-29.68 29.682v29.683m0-29.683h29.68m-29.68 29.683v29.682m0-29.682h29.68m-29.68 29.682v29.682m0-29.682h29.68m-29.68 29.682v29.682m0-29.682h29.68m-29.68 29.682v29.682m0-29.682h29.68m-29.68 29.682v29.683m0-29.683h29.68m-29.68 29.683h29.68m0-593.644v29.682m0-29.682h29.69m-29.69 29.682v29.682m0-29.682h29.69m-29.69 29.682v29.682m0-29.682h29.69m-29.69 29.682v29.682m0-29.682h29.69m-29.69 29.682v29.683m0-29.683h29.69m-29.69 29.683v29.682m0-29.682h29.69m-29.69 29.682v29.682m0-29.682h29.69m-29.69 29.682v29.682m0-29.682h29.69m-29.69 29.682v29.682m0-29.682h29.69m-29.69 29.682v29.683m0-29.683h29.69m-29.69 29.683v29.682m0-29.682h29.69m-29.69 29.682v29.682m0-29.682h29.69m-29.69 29.682v29.682m0-29.682h29.69m-29.69 29.682v29.682m0-29.682h29.69m-29.69 29.682v29.683m0-29.683h29.69m-29.69 29.683v29.682m0-29.682h29.69m-29.69 29.682v29.682m0-29.682h29.69m-29.69 29.682v29.682m0-29.682h29.69m-29.69 29.682v29.682m0-29.682h29.69m-29.69 29.682v29.683m0-29.683h29.69m-29.69 29.683h29.69m0-593.644v29.682m0-29.682h29.68m-29.68 29.682v29.682m0-29.682h29.68m-29.68 29.682v29.682m0-29.682h29.68m-29.68 29.682v29.682m0-29.682h29.68m-29.68 29.682v29.683m0-29.683h29.68m-29.68 29.683v29.682m0-29.682h29.68m-29.68 29.682v29.682m0-29.682h29.68m-29.68 29.682v29.682m0-29.682h29.68m-29.68 29.682v29.682m0-29.682h29.68m-29.68 29.682v29.683m0-29.683h29.68m-29.68 29.683v29.682m0-29.682h29.68m-29.68 29.682v29.682m0-29.682h29.68m-29.68 29.682v29.682m0-29.682h29.68m-29.68 29.682v29.682m0-29.682h29.68m-29.68 29.682v29.683m0-29.683h29.68m-29.68 29.683v29.682m0-29.682h29.68m-29.68 29.682v29.682m0-29.682h29.68m-29.68 29.682v29.682m0-29.682h29.68m-29.68 29.682v29.682m0-29.682h29.68m-29.68 29.682v29.683m0-29.683h29.68m-29.68 29.683h29.68m0-593.644v29.682m0-29.682h29.68m-29.68 29.682v29.682m0-29.682h29.68m-29.68 29.682v29.682m0-29.682h29.68m-29.68 29.682v29.682m0-29.682h29.68m-29.68 29.682v29.683m0-29.683h29.68m-29.68 29.683v29.682m0-29.682h29.68m-29.68 29.682v29.682m0-29.682h29.68m-29.68 29.682v29.682m0-29.682h29.68m-29.68 29.682v29.682m0-29.682h29.68m-29.68 29.682v29.683m0-29.683h29.68m-29.68 29.683v29.682m0-29.682h29.68m-29.68 29.682v29.682m0-29.682h29.68m-29.68 29.682v29.682m0-29.682h29.68m-29.68 29.682v29.682m0-29.682h29.68m-29.68 29.682v29.683m0-29.683h29.68m-29.68 29.683v29.682m0-29.682h29.68m-29.68 29.682v29.682m0-29.682h29.68m-29.68 29.682v29.682m0-29.682h29.68m-29.68 29.682v29.682m0-29.682h29.68m-29.68 29.682v29.683m0-29.683h29.68m-29.68 29.683h29.68m0-593.644v29.682m0-29.682H1835m-29.68 29.682v29.682m0-29.682H1835m-29.68 29.682v29.682m0-29.682H1835m-29.68 29.682v29.682m0-29.682H1835m-29.68 29.682v29.683m0-29.683H1835m-29.68 29.683v29.682m0-29.682H1835m-29.68 29.682v29.682m0-29.682H1835m-29.68 29.682v29.682m0-29.682H1835m-29.68 29.682v29.682m0-29.682H1835m-29.68 29.682v29.683m0-29.683H1835m-29.68 29.683v29.682m0-29.682H1835m-29.68 29.682v29.682m0-29.682H1835m-29.68 29.682v29.682m0-29.682H1835m-29.68 29.682v29.682m0-29.682H1835m-29.68 29.682v29.683m0-29.683H1835m-29.68 29.683v29.682m0-29.682H1835m-29.68 29.682v29.682m0-29.682H1835m-29.68 29.682v29.682m0-29.682H1835m-29.68 29.682v29.682m0-29.682H1835m-29.68 29.682v29.683m0-29.683H1835m-29.68 29.683H1835m0-593.644v29.682m0-29.682h29.69M1835-39.413v29.682m0-29.682h29.69M1835-9.731v29.682m0-29.682h29.69M1835 19.951v29.682m0-29.682h29.69M1835 49.633v29.683m0-29.683h29.69M1835 79.316v29.682m0-29.682h29.69M1835 108.998v29.682m0-29.682h29.69M1835 138.68v29.682m0-29.682h29.69M1835 168.362v29.682m0-29.682h29.69M1835 198.044v29.683m0-29.683h29.69M1835 227.727v29.682m0-29.682h29.69M1835 257.409v29.682m0-29.682h29.69M1835 287.091v29.682m0-29.682h29.69M1835 316.773v29.682m0-29.682h29.69M1835 346.455v29.683m0-29.683h29.69M1835 376.138v29.682m0-29.682h29.69M1835 405.82v29.682m0-29.682h29.69M1835 435.502v29.682m0-29.682h29.69M1835 465.184v29.682m0-29.682h29.69M1835 494.866v29.683m0-29.683h29.69M1835 524.549h29.69m0-593.644v29.682m0-29.682h29.68m-29.68 29.682v29.682m0-29.682h29.68m-29.68 29.682v29.682m0-29.682h29.68m-29.68 29.682v29.682m0-29.682h29.68m-29.68 29.682v29.683m0-29.683h29.68m-29.68 29.683v29.682m0-29.682h29.68m-29.68 29.682v29.682m0-29.682h29.68m-29.68 29.682v29.682m0-29.682h29.68m-29.68 29.682v29.682m0-29.682h29.68m-29.68 29.682v29.683m0-29.683h29.68m-29.68 29.683v29.682m0-29.682h29.68m-29.68 29.682v29.682m0-29.682h29.68m-29.68 29.682v29.682m0-29.682h29.68m-29.68 29.682v29.682m0-29.682h29.68m-29.68 29.682v29.683m0-29.683h29.68m-29.68 29.683v29.682m0-29.682h29.68m-29.68 29.682v29.682m0-29.682h29.68m-29.68 29.682v29.682m0-29.682h29.68m-29.68 29.682v29.682m0-29.682h29.68m-29.68 29.682v29.683m0-29.683h29.68m-29.68 29.683h29.68m0-593.644v29.682m0-29.682h29.68m-29.68 29.682v29.682m0-29.682h29.68m-29.68 29.682v29.682m0-29.682h29.68m-29.68 29.682v29.682m0-29.682h29.68m-29.68 29.682v29.683m0-29.683h29.68m-29.68 29.683v29.682m0-29.682h29.68m-29.68 29.682v29.682m0-29.682h29.68m-29.68 29.682v29.682m0-29.682h29.68m-29.68 29.682v29.682m0-29.682h29.68m-29.68 29.682v29.683m0-29.683h29.68m-29.68 29.683v29.682m0-29.682h29.68m-29.68 29.682v29.682m0-29.682h29.68m-29.68 29.682v29.682m0-29.682h29.68m-29.68 29.682v29.682m0-29.682h29.68m-29.68 29.682v29.683m0-29.683h29.68m-29.68 29.683v29.682m0-29.682h29.68m-29.68 29.682v29.682m0-29.682h29.68m-29.68 29.682v29.682m0-29.682h29.68m-29.68 29.682v29.682m0-29.682h29.68m-29.68 29.682v29.683m0-29.683h29.68m-29.68 29.683h29.68m0-593.644v29.682m0-29.682h29.68m-29.68 29.682v29.682m0-29.682h29.68m-29.68 29.682v29.682m0-29.682h29.68m-29.68 29.682v29.682m0-29.682h29.68m-29.68 29.682v29.683m0-29.683h29.68m-29.68 29.683v29.682m0-29.682h29.68m-29.68 29.682v29.682m0-29.682h29.68m-29.68 29.682v29.682m0-29.682h29.68m-29.68 29.682v29.682m0-29.682h29.68m-29.68 29.682v29.683m0-29.683h29.68m-29.68 29.683v29.682m0-29.682h29.68m-29.68 29.682v29.682m0-29.682h29.68m-29.68 29.682v29.682m0-29.682h29.68m-29.68 29.682v29.682m0-29.682h29.68m-29.68 29.682v29.683m0-29.683h29.68m-29.68 29.683v29.682m0-29.682h29.68m-29.68 29.682v29.682m0-29.682h29.68m-29.68 29.682v29.682m0-29.682h29.68m-29.68 29.682v29.682m0-29.682h29.68m-29.68 29.682v29.683m0-29.683h29.68m-29.68 29.683h29.68m0-593.644v29.682m0-29.682h29.68m-29.68 29.682v29.682m0-29.682h29.68m-29.68 29.682v29.682m0-29.682h29.68m-29.68 29.682v29.682m0-29.682h29.68m-29.68 29.682v29.683m0-29.683h29.68m-29.68 29.683v29.682m0-29.682h29.68m-29.68 29.682v29.682m0-29.682h29.68m-29.68 29.682v29.682m0-29.682h29.68m-29.68 29.682v29.682m0-29.682h29.68m-29.68 29.682v29.683m0-29.683h29.68m-29.68 29.683v29.682m0-29.682h29.68m-29.68 29.682v29.682m0-29.682h29.68m-29.68 29.682v29.682m0-29.682h29.68m-29.68 29.682v29.682m0-29.682h29.68m-29.68 29.682v29.683m0-29.683h29.68m-29.68 29.683v29.682m0-29.682h29.68m-29.68 29.682v29.682m0-29.682h29.68m-29.68 29.682v29.682m0-29.682h29.68m-29.68 29.682v29.682m0-29.682h29.68m-29.68 29.682v29.683m0-29.683h29.68m-29.68 29.683h29.68m0-593.644v29.682m0-29.682h29.69m-29.69 29.682v29.682m0-29.682h29.69m-29.69 29.682v29.682m0-29.682h29.69m-29.69 29.682v29.682m0-29.682h29.69m-29.69 29.682v29.683m0-29.683h29.69m-29.69 29.683v29.682m0-29.682h29.69m-29.69 29.682v29.682m0-29.682h29.69m-29.69 29.682v29.682m0-29.682h29.69m-29.69 29.682v29.682m0-29.682h29.69m-29.69 29.682v29.683m0-29.683h29.69m-29.69 29.683v29.682m0-29.682h29.69m-29.69 29.682v29.682m0-29.682h29.69m-29.69 29.682v29.682m0-29.682h29.69m-29.69 29.682v29.682m0-29.682h29.69m-29.69 29.682v29.683m0-29.683h29.69m-29.69 29.683v29.682m0-29.682h29.69m-29.69 29.682v29.682m0-29.682h29.69m-29.69 29.682v29.682m0-29.682h29.69m-29.69 29.682v29.682m0-29.682h29.69m-29.69 29.682v29.683m0-29.683h29.69m-29.69 29.683h29.69m0-593.644v29.682m0-29.682h29.68m-29.68 29.682v29.682m0-29.682h29.68M2013.1-9.731v29.682m0-29.682h29.68m-29.68 29.682v29.682m0-29.682h29.68m-29.68 29.682v29.683m0-29.683h29.68m-29.68 29.683v29.682m0-29.682h29.68m-29.68 29.682v29.682m0-29.682h29.68m-29.68 29.682v29.682m0-29.682h29.68m-29.68 29.682v29.682m0-29.682h29.68m-29.68 29.682v29.683m0-29.683h29.68m-29.68 29.683v29.682m0-29.682h29.68m-29.68 29.682v29.682m0-29.682h29.68m-29.68 29.682v29.682m0-29.682h29.68m-29.68 29.682v29.682m0-29.682h29.68m-29.68 29.682v29.683m0-29.683h29.68m-29.68 29.683v29.682m0-29.682h29.68m-29.68 29.682v29.682m0-29.682h29.68m-29.68 29.682v29.682m0-29.682h29.68m-29.68 29.682v29.682m0-29.682h29.68m-29.68 29.682v29.683m0-29.683h29.68m-29.68 29.683h29.68m0-593.644v29.682m0-29.682h29.68m-29.68 29.682v29.682m0-29.682h29.68m-29.68 29.682v29.682m0-29.682h29.68m-29.68 29.682v29.682m0-29.682h29.68m-29.68 29.682v29.683m0-29.683h29.68m-29.68 29.683v29.682m0-29.682h29.68m-29.68 29.682v29.682m0-29.682h29.68m-29.68 29.682v29.682m0-29.682h29.68m-29.68 29.682v29.682m0-29.682h29.68m-29.68 29.682v29.683m0-29.683h29.68m-29.68 29.683v29.682m0-29.682h29.68m-29.68 29.682v29.682m0-29.682h29.68m-29.68 29.682v29.682m0-29.682h29.68m-29.68 29.682v29.682m0-29.682h29.68m-29.68 29.682v29.683m0-29.683h29.68m-29.68 29.683v29.682m0-29.682h29.68m-29.68 29.682v29.682m0-29.682h29.68m-29.68 29.682v29.682m0-29.682h29.68m-29.68 29.682v29.682m0-29.682h29.68m-29.68 29.682v29.683m0-29.683h29.68m-29.68 29.683h29.68m0-593.644v29.682m0-29.682h29.68m-29.68 29.682v29.682m0-29.682h29.68m-29.68 29.682v29.682m0-29.682h29.68m-29.68 29.682v29.682m0-29.682h29.68m-29.68 29.682v29.683m0-29.683h29.68m-29.68 29.683v29.682m0-29.682h29.68m-29.68 29.682v29.682m0-29.682h29.68m-29.68 29.682v29.682m0-29.682h29.68m-29.68 29.682v29.682m0-29.682h29.68m-29.68 29.682v29.683m0-29.683h29.68m-29.68 29.683v29.682m0-29.682h29.68m-29.68 29.682v29.682m0-29.682h29.68m-29.68 29.682v29.682m0-29.682h29.68m-29.68 29.682v29.682m0-29.682h29.68m-29.68 29.682v29.683m0-29.683h29.68m-29.68 29.683v29.682m0-29.682h29.68m-29.68 29.682v29.682m0-29.682h29.68m-29.68 29.682v29.682m0-29.682h29.68m-29.68 29.682v29.682m0-29.682h29.68m-29.68 29.682v29.683m0-29.683h29.68m-29.68 29.683h29.68m0-593.644v29.682m0-29.682h29.69m-29.69 29.682v29.682m0-29.682h29.69m-29.69 29.682v29.682m0-29.682h29.69m-29.69 29.682v29.682m0-29.682h29.69m-29.69 29.682v29.683m0-29.683h29.69m-29.69 29.683v29.682m0-29.682h29.69m-29.69 29.682v29.682m0-29.682h29.69m-29.69 29.682v29.682m0-29.682h29.69m-29.69 29.682v29.682m0-29.682h29.69m-29.69 29.682v29.683m0-29.683h29.69m-29.69 29.683v29.682m0-29.682h29.69m-29.69 29.682v29.682m0-29.682h29.69m-29.69 29.682v29.682m0-29.682h29.69m-29.69 29.682v29.682m0-29.682h29.69m-29.69 29.682v29.683m0-29.683h29.69m-29.69 29.683v29.682m0-29.682h29.69m-29.69 29.682v29.682m0-29.682h29.69m-29.69 29.682v29.682m0-29.682h29.69m-29.69 29.682v29.682m0-29.682h29.69m-29.69 29.682v29.683m0-29.683h29.69m-29.69 29.683h29.69m0-593.644v29.682m0-29.682h29.68m-29.68 29.682v29.682m0-29.682h29.68m-29.68 29.682v29.682m0-29.682h29.68m-29.68 29.682v29.682m0-29.682h29.68m-29.68 29.682v29.683m0-29.683h29.68m-29.68 29.683v29.682m0-29.682h29.68m-29.68 29.682v29.682m0-29.682h29.68m-29.68 29.682v29.682m0-29.682h29.68m-29.68 29.682v29.682m0-29.682h29.68m-29.68 29.682v29.683m0-29.683h29.68m-29.68 29.683v29.682m0-29.682h29.68m-29.68 29.682v29.682m0-29.682h29.68m-29.68 29.682v29.682m0-29.682h29.68m-29.68 29.682v29.682m0-29.682h29.68m-29.68 29.682v29.683m0-29.683h29.68m-29.68 29.683v29.682m0-29.682h29.68m-29.68 29.682v29.682m0-29.682h29.68m-29.68 29.682v29.682m0-29.682h29.68m-29.68 29.682v29.682m0-29.682h29.68m-29.68 29.682v29.683m0-29.683h29.68m-29.68 29.683h29.68m0-593.644v29.682m0-29.682h29.68m-29.68 29.682v29.682m0-29.682h29.68m-29.68 29.682v29.682m0-29.682h29.68m-29.68 29.682v29.682m0-29.682h29.68m-29.68 29.682v29.683m0-29.683h29.68m-29.68 29.683v29.682m0-29.682h29.68m-29.68 29.682v29.682m0-29.682h29.68m-29.68 29.682v29.682m0-29.682h29.68m-29.68 29.682v29.682m0-29.682h29.68m-29.68 29.682v29.683m0-29.683h29.68m-29.68 29.683v29.682m0-29.682h29.68m-29.68 29.682v29.682m0-29.682h29.68m-29.68 29.682v29.682m0-29.682h29.68m-29.68 29.682v29.682m0-29.682h29.68m-29.68 29.682v29.683m0-29.683h29.68m-29.68 29.683v29.682m0-29.682h29.68m-29.68 29.682v29.682m0-29.682h29.68m-29.68 29.682v29.682m0-29.682h29.68m-29.68 29.682v29.682m0-29.682h29.68m-29.68 29.682v29.683m0-29.683h29.68m-29.68 29.683h29.68m0-593.644v29.682m0-29.682h29.68m-29.68 29.682v29.682m0-29.682h29.68m-29.68 29.682v29.682m0-29.682h29.68m-29.68 29.682v29.682m0-29.682h29.68m-29.68 29.682v29.683m0-29.683h29.68m-29.68 29.683v29.682m0-29.682h29.68m-29.68 29.682v29.682m0-29.682h29.68m-29.68 29.682v29.682m0-29.682h29.68m-29.68 29.682v29.682m0-29.682h29.68m-29.68 29.682v29.683m0-29.683h29.68m-29.68 29.683v29.682m0-29.682h29.68m-29.68 29.682v29.682m0-29.682h29.68m-29.68 29.682v29.682m0-29.682h29.68m-29.68 29.682v29.682m0-29.682h29.68m-29.68 29.682v29.683m0-29.683h29.68m-29.68 29.683v29.682m0-29.682h29.68m-29.68 29.682v29.682m0-29.682h29.68m-29.68 29.682v29.682m0-29.682h29.68m-29.68 29.682v29.682m0-29.682h29.68m-29.68 29.682v29.683m0-29.683h29.68m-29.68 29.683h29.68m0-593.644v29.682m0-29.682h29.68m-29.68 29.682v29.682m0-29.682h29.68m-29.68 29.682v29.682m0-29.682h29.68m-29.68 29.682v29.682m0-29.682h29.68m-29.68 29.682v29.683m0-29.683h29.68m-29.68 29.683v29.682m0-29.682h29.68m-29.68 29.682v29.682m0-29.682h29.68m-29.68 29.682v29.682m0-29.682h29.68m-29.68 29.682v29.682m0-29.682h29.68m-29.68 29.682v29.683m0-29.683h29.68m-29.68 29.683v29.682m0-29.682h29.68m-29.68 29.682v29.682m0-29.682h29.68m-29.68 29.682v29.682m0-29.682h29.68m-29.68 29.682v29.682m0-29.682h29.68m-29.68 29.682v29.683m0-29.683h29.68m-29.68 29.683v29.682m0-29.682h29.68m-29.68 29.682v29.682m0-29.682h29.68m-29.68 29.682v29.682m0-29.682h29.68m-29.68 29.682v29.682m0-29.682h29.68m-29.68 29.682v29.683m0-29.683h29.68m-29.68 29.683h29.68m0-593.644v29.682m0-29.682h29.69m-29.69 29.682v29.682m0-29.682h29.69m-29.69 29.682v29.682m0-29.682h29.69m-29.69 29.682v29.682m0-29.682h29.69m-29.69 29.682v29.683m0-29.683h29.69m-29.69 29.683v29.682m0-29.682h29.69m-29.69 29.682v29.682m0-29.682h29.69m-29.69 29.682v29.682m0-29.682h29.69m-29.69 29.682v29.682m0-29.682h29.69m-29.69 29.682v29.683m0-29.683h29.69m-29.69 29.683v29.682m0-29.682h29.69m-29.69 29.682v29.682m0-29.682h29.69m-29.69 29.682v29.682m0-29.682h29.69m-29.69 29.682v29.682m0-29.682h29.69m-29.69 29.682v29.683m0-29.683h29.69m-29.69 29.683v29.682m0-29.682h29.69m-29.69 29.682v29.682m0-29.682h29.69m-29.69 29.682v29.682m0-29.682h29.69m-29.69 29.682v29.682m0-29.682h29.69m-29.69 29.682v29.683m0-29.683h29.69m-29.69 29.683h29.69m0-593.644v29.682m0-29.682h29.68v29.682m-29.68 0v29.682m0-29.682h29.68m-29.68 29.682v29.682m0-29.682h29.68m-29.68 29.682v29.682m0-29.682h29.68m-29.68 29.682v29.683m0-29.683h29.68m-29.68 29.683v29.682m0-29.682h29.68m-29.68 29.682v29.682m0-29.682h29.68m-29.68 29.682v29.682m0-29.682h29.68m-29.68 29.682v29.682m0-29.682h29.68m-29.68 29.682v29.683m0-29.683h29.68m-29.68 29.683v29.682m0-29.682h29.68m-29.68 29.682v29.682m0-29.682h29.68m-29.68 29.682v29.682m0-29.682h29.68m-29.68 29.682v29.682m0-29.682h29.68m-29.68 29.682v29.683m0-29.683h29.68m-29.68 29.683v29.682m0-29.682h29.68m-29.68 29.682v29.682m0-29.682h29.68m-29.68 29.682v29.682m0-29.682h29.68m-29.68 29.682v29.682m0-29.682h29.68m-29.68 29.682v29.683m0-29.683h29.68m-29.68 29.683h29.68v-29.683m0-534.279v29.682m0 0v29.682m0 0v29.682m0 0v29.683m0 0v29.682m0 0v29.682m0 0v29.682m0 0v29.682m0 0v29.683m0 0v29.682m0 0v29.682m0 0v29.682m0 0v29.682m0 0v29.683m0 0v29.682m0 0v29.682m0 0v29.682m0 0v29.682" opacity=".7" style="mix-blend-mode:soft-light"></path><path stroke="url(#c)" stroke-opacity=".6" stroke-width="1.611" d="M1122.63 40.729v8.904m0 0v8.905m0-8.905h-8.9m8.9 0h8.91m-8.91 228.553v8.905m0 0v8.905m0-8.905h-8.9m8.9 0h8.91m-8.91 228.553v8.904m0 0v8.905m0-8.905h-8.9m8.9 0h8.91m228.55-483.82v8.905m0 0v8.905m0-8.905h-8.9m8.9 0h8.91m-8.91 228.553v8.905m0 0v8.905m0-8.905h-8.9m8.9 0h8.91m-8.91 228.553v8.904m0 0v8.905m0-8.905h-8.9m8.9 0h8.91m228.55-483.82v8.905m0 0v8.905m0-8.905h-8.91m8.91 0h8.9m-8.9 228.553v8.905m0 0v8.905m0-8.905h-8.91m8.91 0h8.9m-8.9 228.553v8.904m0 0v8.905m0-8.905h-8.91m8.91 0h8.9m228.56-483.82v8.905m0 0v8.905m0-8.905h-8.91m8.91 0h8.9m-8.9 228.553v8.905m0 0v8.905m0-8.905h-8.91m8.91 0h8.9m-8.9 228.553v8.904m0 0v8.905m0-8.905h-8.91m8.91 0h8.9m228.55-483.82v8.905m0 0v8.905m0-8.905h-8.9m8.9 0h8.91m-8.91 228.553v8.905m0 0v8.905m0-8.905h-8.9m8.9 0h8.91m-8.91 228.553v8.904m0 0v8.905m0-8.905h-8.9m8.9 0h8.91m228.55-483.82v8.905m0 0v8.905m0-8.905h-8.9m8.9 0h8.91m-8.91 228.553v8.905m0 0v8.905m0-8.905h-8.9m8.9 0h8.91m-8.91 228.553v8.904m0 0v8.905m0-8.905h-8.9m8.9 0h8.91M1122.63-78v8.905m0 0v8.904m0-8.904h-8.9m8.9 0h8.91m-8.91 228.553v8.904m0 0v8.905m0-8.905h-8.9m8.9 0h8.91m-8.91 228.553v8.905m0 0v8.904m0-8.904h-8.9m8.9 0h8.91M1360.09-78v8.905m0 0v8.904m0-8.904h-8.9m8.9 0h8.91m-8.91 228.553v8.904m0 0v8.905m0-8.905h-8.9m8.9 0h8.91m-8.91 228.553v8.905m0 0v8.904m0-8.904h-8.9m8.9 0h8.91M1597.55-78v8.905m0 0v8.904m0-8.904h-8.91m8.91 0h8.9m-8.9 228.553v8.904m0 0v8.905m0-8.905h-8.91m8.91 0h8.9m-8.9 228.553v8.905m0 0v8.904m0-8.904h-8.91m8.91 0h8.9M1835.01-78v8.905m0 0v8.904m0-8.904h-8.91m8.91 0h8.9m-8.9 228.553v8.904m0 0v8.905m0-8.905h-8.91m8.91 0h8.9m-8.9 228.553v8.905m0 0v8.904m0-8.904h-8.91m8.91 0h8.9M2072.46-78v8.905m0 0v8.904m0-8.904h-8.9m8.9 0h8.91m-8.91 228.553v8.904m0 0v8.905m0-8.905h-8.9m8.9 0h8.91m-8.91 228.553v8.905m0 0v8.904m0-8.904h-8.9m8.9 0h8.91M2309.92-78v8.905m0 0v8.904m0-8.904h-8.9m8.9 0h8.91m-8.91 228.553v8.904m0 0v8.905m0-8.905h-8.9m8.9 0h8.91m-8.91 228.553v8.905m0 0v8.904m0-8.904h-8.9m8.9 0h8.91M1003.9 40.729v8.904m0 0v8.905m0-8.905H995m8.9 0h8.91m-8.91 228.553v8.905m0 0v8.905m0-8.905H995m8.9 0h8.91m-8.91 228.553v8.904m0 0v8.905m0-8.905H995m8.9 0h8.91m228.55-483.82v8.905m0 0v8.905m0-8.905h-8.9m8.9 0h8.91m-8.91 228.553v8.905m0 0v8.905m0-8.905h-8.9m8.9 0h8.91m-8.91 228.553v8.904m0 0v8.905m0-8.905h-8.9m8.9 0h8.91m228.55-483.82v8.905m0 0v8.905m0-8.905h-8.9m8.9 0h8.9m-8.9 228.553v8.905m0 0v8.905m0-8.905h-8.9m8.9 0h8.9m-8.9 228.553v8.904m0 0v8.905m0-8.905h-8.9m8.9 0h8.9m228.56-483.82v8.905m0 0v8.905m0-8.905h-8.91m8.91 0h8.9m-8.9 228.553v8.905m0 0v8.905m0-8.905h-8.91m8.91 0h8.9m-8.9 228.553v8.904m0 0v8.905m0-8.905h-8.91m8.91 0h8.9m228.55-483.82v8.905m0 0v8.905m0-8.905h-8.9m8.9 0h8.91m-8.91 228.553v8.905m0 0v8.905m0-8.905h-8.9m8.9 0h8.91m-8.91 228.553v8.904m0 0v8.905m0-8.905h-8.9m8.9 0h8.91m228.55-483.82v8.905m0 0v8.905m0-8.905h-8.9m8.9 0h8.91m-8.91 228.553v8.905m0 0v8.905m0-8.905h-8.9m8.9 0h8.91m-8.91 228.553v8.904m0 0v8.905m0-8.905h-8.9m8.9 0h8.91M1003.9-78v8.905m0 0v8.904m0-8.904H995m8.9 0h8.91m-8.91 228.553v8.904m0 0v8.905m0-8.905H995m8.9 0h8.91m-8.91 228.553v8.905m0 0v8.904m0-8.904H995m8.9 0h8.91M1241.36-78v8.905m0 0v8.904m0-8.904h-8.9m8.9 0h8.91m-8.91 228.553v8.904m0 0v8.905m0-8.905h-8.9m8.9 0h8.91m-8.91 228.553v8.905m0 0v8.904m0-8.904h-8.9m8.9 0h8.91M1478.82-78v8.905m0 0v8.904m0-8.904h-8.9m8.9 0h8.9m-8.9 228.553v8.904m0 0v8.905m0-8.905h-8.9m8.9 0h8.9m-8.9 228.553v8.905m0 0v8.904m0-8.904h-8.9m8.9 0h8.9M1716.28-78v8.905m0 0v8.904m0-8.904h-8.91m8.91 0h8.9m-8.9 228.553v8.904m0 0v8.905m0-8.905h-8.91m8.91 0h8.9m-8.9 228.553v8.905m0 0v8.904m0-8.904h-8.91m8.91 0h8.9M1953.73-78v8.905m0 0v8.904m0-8.904h-8.9m8.9 0h8.91m-8.91 228.553v8.904m0 0v8.905m0-8.905h-8.9m8.9 0h8.91m-8.91 228.553v8.905m0 0v8.904m0-8.904h-8.9m8.9 0h8.91M2191.19-78v8.905m0 0v8.904m0-8.904h-8.9m8.9 0h8.91m-8.91 228.553v8.904m0 0v8.905m0-8.905h-8.9m8.9 0h8.91m-8.91 228.553v8.905m0 0v8.904m0-8.904h-8.9m8.9 0h8.91" opacity=".8" style="mix-blend-mode:soft-light"></path><path stroke="url(#d)" stroke-opacity=".6" stroke-width=".805" d="M-840.415-69.095h-29.683v29.682m29.683-29.682v29.682m0-29.682h29.682m-29.682 29.682h-29.683m29.683 0v29.682m0-29.682h29.682m-59.365 0v29.682m29.683 0h-29.683m29.683 0v29.682m0-29.682h29.682m-59.365 0v29.682m29.683 0h-29.683m29.683 0v29.682m0-29.682h29.682m-59.365 0v29.682m29.683 0h-29.683m29.683 0v29.683m0-29.683h29.682m-59.365 0v29.683m29.683 0h-29.683m29.683 0v29.682m0-29.682h29.682m-59.365 0v29.682m29.683 0h-29.683m29.683 0v29.682m0-29.682h29.682m-59.365 0v29.682m29.683 0h-29.683m29.683 0v29.682m0-29.682h29.682m-59.365 0v29.682m29.683 0h-29.683m29.683 0v29.682m0-29.682h29.682m-59.365 0v29.682m29.683 0h-29.683m29.683 0v29.683m0-29.683h29.682m-59.365 0v29.683m29.683 0h-29.683m29.683 0v29.682m0-29.682h29.682m-59.365 0v29.682m29.683 0h-29.683m29.683 0v29.682m0-29.682h29.682m-59.365 0v29.682m29.683 0h-29.683m29.683 0v29.682m0-29.682h29.682m-59.365 0v29.682m29.683 0h-29.683m29.683 0v29.682m0-29.682h29.682m-59.365 0v29.682m29.683 0h-29.683m29.683 0v29.683m0-29.683h29.682m-59.365 0v29.683m29.683 0h-29.683m29.683 0v29.682m0-29.682h29.682m-59.365 0v29.682m29.683 0h-29.683m29.683 0v29.682m0-29.682h29.682m-59.365 0v29.682m29.683 0h-29.683m29.683 0v29.682m0-29.682h29.682m-59.365 0v29.682m29.683 0h-29.683m29.683 0v29.682m0-29.682h29.682m-59.365 0v29.682m29.683 0h-29.683m29.683 0v29.683m0-29.683h29.682m-59.365 0v29.683h29.683m0 0h29.682m0-593.644v29.682m0-29.682h29.682m-29.682 29.682v29.682m0-29.682h29.682m-29.682 29.682v29.682m0-29.682h29.682m-29.682 29.682v29.682m0-29.682h29.682m-29.682 29.682v29.683m0-29.683h29.682m-29.682 29.683v29.682m0-29.682h29.682m-29.682 29.682v29.682m0-29.682h29.682m-29.682 29.682v29.682m0-29.682h29.682m-29.682 29.682v29.682m0-29.682h29.682m-29.682 29.682v29.683m0-29.683h29.682m-29.682 29.683v29.682m0-29.682h29.682m-29.682 29.682v29.682m0-29.682h29.682m-29.682 29.682v29.682m0-29.682h29.682m-29.682 29.682v29.682m0-29.682h29.682m-29.682 29.682v29.683m0-29.683h29.682m-29.682 29.683v29.682m0-29.682h29.682m-29.682 29.682v29.682m0-29.682h29.682m-29.682 29.682v29.682m0-29.682h29.682m-29.682 29.682v29.682m0-29.682h29.682m-29.682 29.682v29.683m0-29.683h29.682m-29.682 29.683h29.682m0-593.644v29.682m0-29.682h29.682m-29.682 29.682v29.682m0-29.682h29.682m-29.682 29.682v29.682m0-29.682h29.682m-29.682 29.682v29.682m0-29.682h29.682m-29.682 29.682v29.683m0-29.683h29.682m-29.682 29.683v29.682m0-29.682h29.682m-29.682 29.682v29.682m0-29.682h29.682m-29.682 29.682v29.682m0-29.682h29.682m-29.682 29.682v29.682m0-29.682h29.682m-29.682 29.682v29.683m0-29.683h29.682m-29.682 29.683v29.682m0-29.682h29.682m-29.682 29.682v29.682m0-29.682h29.682m-29.682 29.682v29.682m0-29.682h29.682m-29.682 29.682v29.682m0-29.682h29.682m-29.682 29.682v29.683m0-29.683h29.682m-29.682 29.683v29.682m0-29.682h29.682m-29.682 29.682v29.682m0-29.682h29.682m-29.682 29.682v29.682m0-29.682h29.682m-29.682 29.682v29.682m0-29.682h29.682m-29.682 29.682v29.683m0-29.683h29.682m-29.682 29.683h29.682m0-593.644v29.682m0-29.682h29.682m-29.682 29.682v29.682m0-29.682h29.682m-29.682 29.682v29.682m0-29.682h29.682m-29.682 29.682v29.682m0-29.682h29.682m-29.682 29.682v29.683m0-29.683h29.682m-29.682 29.683v29.682m0-29.682h29.682m-29.682 29.682v29.682m0-29.682h29.682m-29.682 29.682v29.682m0-29.682h29.682m-29.682 29.682v29.682m0-29.682h29.682m-29.682 29.682v29.683m0-29.683h29.682m-29.682 29.683v29.682m0-29.682h29.682m-29.682 29.682v29.682m0-29.682h29.682m-29.682 29.682v29.682m0-29.682h29.682m-29.682 29.682v29.682m0-29.682h29.682m-29.682 29.682v29.683m0-29.683h29.682m-29.682 29.683v29.682m0-29.682h29.682m-29.682 29.682v29.682m0-29.682h29.682m-29.682 29.682v29.682m0-29.682h29.682m-29.682 29.682v29.682m0-29.682h29.682m-29.682 29.682v29.683m0-29.683h29.682m-29.682 29.683h29.682m0-593.644v29.682m0-29.682h29.682m-29.682 29.682v29.682m0-29.682h29.682m-29.682 29.682v29.682m0-29.682h29.682m-29.682 29.682v29.682m0-29.682h29.682m-29.682 29.682v29.683m0-29.683h29.682m-29.682 29.683v29.682m0-29.682h29.682m-29.682 29.682v29.682m0-29.682h29.682m-29.682 29.682v29.682m0-29.682h29.682m-29.682 29.682v29.682m0-29.682h29.682m-29.682 29.682v29.683m0-29.683h29.682m-29.682 29.683v29.682m0-29.682h29.682m-29.682 29.682v29.682m0-29.682h29.682m-29.682 29.682v29.682m0-29.682h29.682m-29.682 29.682v29.682m0-29.682h29.682m-29.682 29.682v29.683m0-29.683h29.682m-29.682 29.683v29.682m0-29.682h29.682m-29.682 29.682v29.682m0-29.682h29.682m-29.682 29.682v29.682m0-29.682h29.682m-29.682 29.682v29.682m0-29.682h29.682m-29.682 29.682v29.683m0-29.683h29.682m-29.682 29.683h29.682m0-593.644v29.682m0-29.682h29.683m-29.683 29.682v29.682m0-29.682h29.683m-29.683 29.682v29.682m0-29.682h29.683m-29.683 29.682v29.682m0-29.682h29.683m-29.683 29.682v29.683m0-29.683h29.683m-29.683 29.683v29.682m0-29.682h29.683m-29.683 29.682v29.682m0-29.682h29.683m-29.683 29.682v29.682m0-29.682h29.683m-29.683 29.682v29.682m0-29.682h29.683m-29.683 29.682v29.683m0-29.683h29.683m-29.683 29.683v29.682m0-29.682h29.683m-29.683 29.682v29.682m0-29.682h29.683m-29.683 29.682v29.682m0-29.682h29.683m-29.683 29.682v29.682m0-29.682h29.683m-29.683 29.682v29.683m0-29.683h29.683m-29.683 29.683v29.682m0-29.682h29.683m-29.683 29.682v29.682m0-29.682h29.683m-29.683 29.682v29.682m0-29.682h29.683m-29.683 29.682v29.682m0-29.682h29.683m-29.683 29.682v29.683m0-29.683h29.683m-29.683 29.683h29.683m0-593.644v29.682m0-29.682h29.682m-29.682 29.682v29.682m0-29.682h29.682m-29.682 29.682v29.682m0-29.682h29.682m-29.682 29.682v29.682m0-29.682h29.682m-29.682 29.682v29.683m0-29.683h29.682m-29.682 29.683v29.682m0-29.682h29.682m-29.682 29.682v29.682m0-29.682h29.682m-29.682 29.682v29.682m0-29.682h29.682m-29.682 29.682v29.682m0-29.682h29.682m-29.682 29.682v29.683m0-29.683h29.682m-29.682 29.683v29.682m0-29.682h29.682m-29.682 29.682v29.682m0-29.682h29.682m-29.682 29.682v29.682m0-29.682h29.682m-29.682 29.682v29.682m0-29.682h29.682m-29.682 29.682v29.683m0-29.683h29.682m-29.682 29.683v29.682m0-29.682h29.682m-29.682 29.682v29.682m0-29.682h29.682m-29.682 29.682v29.682m0-29.682h29.682m-29.682 29.682v29.682m0-29.682h29.682m-29.682 29.682v29.683m0-29.683h29.682m-29.682 29.683h29.682m0-593.644v29.682m0-29.682h29.682m-29.682 29.682v29.682m0-29.682h29.682M-632.64-9.731v29.682m0-29.682h29.682m-29.682 29.682v29.682m0-29.682h29.682m-29.682 29.682v29.683m0-29.683h29.682m-29.682 29.683v29.682m0-29.682h29.682m-29.682 29.682v29.682m0-29.682h29.682m-29.682 29.682v29.682m0-29.682h29.682m-29.682 29.682v29.682m0-29.682h29.682m-29.682 29.682v29.683m0-29.683h29.682m-29.682 29.683v29.682m0-29.682h29.682m-29.682 29.682v29.682m0-29.682h29.682m-29.682 29.682v29.682m0-29.682h29.682m-29.682 29.682v29.682m0-29.682h29.682m-29.682 29.682v29.683m0-29.683h29.682m-29.682 29.683v29.682m0-29.682h29.682m-29.682 29.682v29.682m0-29.682h29.682m-29.682 29.682v29.682m0-29.682h29.682m-29.682 29.682v29.682m0-29.682h29.682m-29.682 29.682v29.683m0-29.683h29.682m-29.682 29.683h29.682m0-593.644v29.682m0-29.682h29.682m-29.682 29.682v29.682m0-29.682h29.682m-29.682 29.682v29.682m0-29.682h29.682m-29.682 29.682v29.682m0-29.682h29.682m-29.682 29.682v29.683m0-29.683h29.682m-29.682 29.683v29.682m0-29.682h29.682m-29.682 29.682v29.682m0-29.682h29.682m-29.682 29.682v29.682m0-29.682h29.682m-29.682 29.682v29.682m0-29.682h29.682m-29.682 29.682v29.683m0-29.683h29.682m-29.682 29.683v29.682m0-29.682h29.682m-29.682 29.682v29.682m0-29.682h29.682m-29.682 29.682v29.682m0-29.682h29.682m-29.682 29.682v29.682m0-29.682h29.682m-29.682 29.682v29.683m0-29.683h29.682m-29.682 29.683v29.682m0-29.682h29.682m-29.682 29.682v29.682m0-29.682h29.682m-29.682 29.682v29.682m0-29.682h29.682m-29.682 29.682v29.682m0-29.682h29.682m-29.682 29.682v29.683m0-29.683h29.682m-29.682 29.683h29.682m0-593.644v29.682m0-29.682h29.682m-29.682 29.682v29.682m0-29.682h29.682m-29.682 29.682v29.682m0-29.682h29.682m-29.682 29.682v29.682m0-29.682h29.682m-29.682 29.682v29.683m0-29.683h29.682m-29.682 29.683v29.682m0-29.682h29.682m-29.682 29.682v29.682m0-29.682h29.682m-29.682 29.682v29.682m0-29.682h29.682m-29.682 29.682v29.682m0-29.682h29.682m-29.682 29.682v29.683m0-29.683h29.682m-29.682 29.683v29.682m0-29.682h29.682m-29.682 29.682v29.682m0-29.682h29.682m-29.682 29.682v29.682m0-29.682h29.682m-29.682 29.682v29.682m0-29.682h29.682m-29.682 29.682v29.683m0-29.683h29.682m-29.682 29.683v29.682m0-29.682h29.682m-29.682 29.682v29.682m0-29.682h29.682m-29.682 29.682v29.682m0-29.682h29.682m-29.682 29.682v29.682m0-29.682h29.682m-29.682 29.682v29.683m0-29.683h29.682m-29.682 29.683h29.682m0-593.644v29.682m0-29.682h29.683m-29.683 29.682v29.682m0-29.682h29.683m-29.683 29.682v29.682m0-29.682h29.683m-29.683 29.682v29.682m0-29.682h29.683m-29.683 29.682v29.683m0-29.683h29.683m-29.683 29.683v29.682m0-29.682h29.683m-29.683 29.682v29.682m0-29.682h29.683m-29.683 29.682v29.682m0-29.682h29.683m-29.683 29.682v29.682m0-29.682h29.683m-29.683 29.682v29.683m0-29.683h29.683m-29.683 29.683v29.682m0-29.682h29.683m-29.683 29.682v29.682m0-29.682h29.683m-29.683 29.682v29.682m0-29.682h29.683m-29.683 29.682v29.682m0-29.682h29.683m-29.683 29.682v29.683m0-29.683h29.683m-29.683 29.683v29.682m0-29.682h29.683m-29.683 29.682v29.682m0-29.682h29.683m-29.683 29.682v29.682m0-29.682h29.683m-29.683 29.682v29.682m0-29.682h29.683m-29.683 29.682v29.683m0-29.683h29.683m-29.683 29.683h29.683m0-593.644v29.682m0-29.682h29.682m-29.682 29.682v29.682m0-29.682h29.682m-29.682 29.682v29.682m0-29.682h29.682m-29.682 29.682v29.682m0-29.682h29.682m-29.682 29.682v29.683m0-29.683h29.682m-29.682 29.683v29.682m0-29.682h29.682m-29.682 29.682v29.682m0-29.682h29.682m-29.682 29.682v29.682m0-29.682h29.682m-29.682 29.682v29.682m0-29.682h29.682m-29.682 29.682v29.683m0-29.683h29.682m-29.682 29.683v29.682m0-29.682h29.682m-29.682 29.682v29.682m0-29.682h29.682m-29.682 29.682v29.682m0-29.682h29.682m-29.682 29.682v29.682m0-29.682h29.682m-29.682 29.682v29.683m0-29.683h29.682m-29.682 29.683v29.682m0-29.682h29.682m-29.682 29.682v29.682m0-29.682h29.682m-29.682 29.682v29.682m0-29.682h29.682m-29.682 29.682v29.682m0-29.682h29.682m-29.682 29.682v29.683m0-29.683h29.682m-29.682 29.683h29.682m0-593.644v29.682m0-29.682h29.682m-29.682 29.682v29.682m0-29.682h29.682m-29.682 29.682v29.682m0-29.682h29.682m-29.682 29.682v29.682m0-29.682h29.682m-29.682 29.682v29.683m0-29.683h29.682m-29.682 29.683v29.682m0-29.682h29.682m-29.682 29.682v29.682m0-29.682h29.682m-29.682 29.682v29.682m0-29.682h29.682m-29.682 29.682v29.682m0-29.682h29.682m-29.682 29.682v29.683m0-29.683h29.682m-29.682 29.683v29.682m0-29.682h29.682m-29.682 29.682v29.682m0-29.682h29.682m-29.682 29.682v29.682m0-29.682h29.682m-29.682 29.682v29.682m0-29.682h29.682m-29.682 29.682v29.683m0-29.683h29.682m-29.682 29.683v29.682m0-29.682h29.682m-29.682 29.682v29.682m0-29.682h29.682m-29.682 29.682v29.682m0-29.682h29.682m-29.682 29.682v29.682m0-29.682h29.682m-29.682 29.682v29.683m0-29.683h29.682m-29.682 29.683h29.682m0-593.644v29.682m0-29.682h29.682m-29.682 29.682v29.682m0-29.682h29.682m-29.682 29.682v29.682m0-29.682h29.682m-29.682 29.682v29.682m0-29.682h29.682m-29.682 29.682v29.683m0-29.683h29.682m-29.682 29.683v29.682m0-29.682h29.682m-29.682 29.682v29.682m0-29.682h29.682m-29.682 29.682v29.682m0-29.682h29.682m-29.682 29.682v29.682m0-29.682h29.682m-29.682 29.682v29.683m0-29.683h29.682m-29.682 29.683v29.682m0-29.682h29.682m-29.682 29.682v29.682m0-29.682h29.682m-29.682 29.682v29.682m0-29.682h29.682m-29.682 29.682v29.682m0-29.682h29.682m-29.682 29.682v29.683m0-29.683h29.682m-29.682 29.683v29.682m0-29.682h29.682m-29.682 29.682v29.682m0-29.682h29.682m-29.682 29.682v29.682m0-29.682h29.682m-29.682 29.682v29.682m0-29.682h29.682m-29.682 29.682v29.683m0-29.683h29.682m-29.682 29.683h29.682m0-593.644v29.682m0-29.682h29.682m-29.682 29.682v29.682m0-29.682h29.682m-29.682 29.682v29.682m0-29.682h29.682m-29.682 29.682v29.682m0-29.682h29.682m-29.682 29.682v29.683m0-29.683h29.682m-29.682 29.683v29.682m0-29.682h29.682m-29.682 29.682v29.682m0-29.682h29.682m-29.682 29.682v29.682m0-29.682h29.682m-29.682 29.682v29.682m0-29.682h29.682m-29.682 29.682v29.683m0-29.683h29.682m-29.682 29.683v29.682m0-29.682h29.682m-29.682 29.682v29.682m0-29.682h29.682m-29.682 29.682v29.682m0-29.682h29.682m-29.682 29.682v29.682m0-29.682h29.682m-29.682 29.682v29.683m0-29.683h29.682m-29.682 29.683v29.682m0-29.682h29.682m-29.682 29.682v29.682m0-29.682h29.682m-29.682 29.682v29.682m0-29.682h29.682m-29.682 29.682v29.682m0-29.682h29.682m-29.682 29.682v29.683m0-29.683h29.682m-29.682 29.683h29.682m0-593.644v29.682m0-29.682h29.683m-29.683 29.682v29.682m0-29.682h29.683m-29.683 29.682v29.682m0-29.682h29.683m-29.683 29.682v29.682m0-29.682h29.683m-29.683 29.682v29.683m0-29.683h29.683m-29.683 29.683v29.682m0-29.682h29.683m-29.683 29.682v29.682m0-29.682h29.683m-29.683 29.682v29.682m0-29.682h29.683m-29.683 29.682v29.682m0-29.682h29.683m-29.683 29.682v29.683m0-29.683h29.683m-29.683 29.683v29.682m0-29.682h29.683m-29.683 29.682v29.682m0-29.682h29.683m-29.683 29.682v29.682m0-29.682h29.683m-29.683 29.682v29.682m0-29.682h29.683m-29.683 29.682v29.683m0-29.683h29.683m-29.683 29.683v29.682m0-29.682h29.683m-29.683 29.682v29.682m0-29.682h29.683m-29.683 29.682v29.682m0-29.682h29.683m-29.683 29.682v29.682m0-29.682h29.683m-29.683 29.682v29.683m0-29.683h29.683m-29.683 29.683h29.683m0-593.644v29.682m0-29.682h29.682M-365.5-39.413v29.682m0-29.682h29.682M-365.5-9.731v29.682m0-29.682h29.682M-365.5 19.951v29.682m0-29.682h29.682M-365.5 49.633v29.683m0-29.683h29.682M-365.5 79.316v29.682m0-29.682h29.682m-29.682 29.682v29.682m0-29.682h29.682M-365.5 138.68v29.682m0-29.682h29.682m-29.682 29.682v29.682m0-29.682h29.682m-29.682 29.682v29.683m0-29.683h29.682m-29.682 29.683v29.682m0-29.682h29.682m-29.682 29.682v29.682m0-29.682h29.682m-29.682 29.682v29.682m0-29.682h29.682m-29.682 29.682v29.682m0-29.682h29.682m-29.682 29.682v29.683m0-29.683h29.682m-29.682 29.683v29.682m0-29.682h29.682M-365.5 405.82v29.682m0-29.682h29.682m-29.682 29.682v29.682m0-29.682h29.682m-29.682 29.682v29.682m0-29.682h29.682m-29.682 29.682v29.683m0-29.683h29.682m-29.682 29.683h29.682m0-593.644v29.682m0-29.682h29.682m-29.682 29.682v29.682m0-29.682h29.682m-29.682 29.682v29.682m0-29.682h29.682m-29.682 29.682v29.682m0-29.682h29.682m-29.682 29.682v29.683m0-29.683h29.682m-29.682 29.683v29.682m0-29.682h29.682m-29.682 29.682v29.682m0-29.682h29.682m-29.682 29.682v29.682m0-29.682h29.682m-29.682 29.682v29.682m0-29.682h29.682m-29.682 29.682v29.683m0-29.683h29.682m-29.682 29.683v29.682m0-29.682h29.682m-29.682 29.682v29.682m0-29.682h29.682m-29.682 29.682v29.682m0-29.682h29.682m-29.682 29.682v29.682m0-29.682h29.682m-29.682 29.682v29.683m0-29.683h29.682m-29.682 29.683v29.682m0-29.682h29.682m-29.682 29.682v29.682m0-29.682h29.682m-29.682 29.682v29.682m0-29.682h29.682m-29.682 29.682v29.682m0-29.682h29.682m-29.682 29.682v29.683m0-29.683h29.682m-29.682 29.683h29.682m0-593.644v29.682m0-29.682h29.682m-29.682 29.682v29.682m0-29.682h29.682m-29.682 29.682v29.682m0-29.682h29.682m-29.682 29.682v29.682m0-29.682h29.682m-29.682 29.682v29.683m0-29.683h29.682m-29.682 29.683v29.682m0-29.682h29.682m-29.682 29.682v29.682m0-29.682h29.682m-29.682 29.682v29.682m0-29.682h29.682m-29.682 29.682v29.682m0-29.682h29.682m-29.682 29.682v29.683m0-29.683h29.682m-29.682 29.683v29.682m0-29.682h29.682m-29.682 29.682v29.682m0-29.682h29.682m-29.682 29.682v29.682m0-29.682h29.682m-29.682 29.682v29.682m0-29.682h29.682m-29.682 29.682v29.683m0-29.683h29.682m-29.682 29.683v29.682m0-29.682h29.682m-29.682 29.682v29.682m0-29.682h29.682m-29.682 29.682v29.682m0-29.682h29.682m-29.682 29.682v29.682m0-29.682h29.682m-29.682 29.682v29.683m0-29.683h29.682m-29.682 29.683h29.682m0-593.644v29.682m0-29.682h29.682m-29.682 29.682v29.682m0-29.682h29.682m-29.682 29.682v29.682m0-29.682h29.682m-29.682 29.682v29.682m0-29.682h29.682m-29.682 29.682v29.683m0-29.683h29.682m-29.682 29.683v29.682m0-29.682h29.682m-29.682 29.682v29.682m0-29.682h29.682m-29.682 29.682v29.682m0-29.682h29.682m-29.682 29.682v29.682m0-29.682h29.682m-29.682 29.682v29.683m0-29.683h29.682m-29.682 29.683v29.682m0-29.682h29.682m-29.682 29.682v29.682m0-29.682h29.682m-29.682 29.682v29.682m0-29.682h29.682m-29.682 29.682v29.682m0-29.682h29.682m-29.682 29.682v29.683m0-29.683h29.682m-29.682 29.683v29.682m0-29.682h29.682m-29.682 29.682v29.682m0-29.682h29.682m-29.682 29.682v29.682m0-29.682h29.682m-29.682 29.682v29.682m0-29.682h29.682m-29.682 29.682v29.683m0-29.683h29.682m-29.682 29.683h29.682m0-593.644v29.682m0-29.682h29.683m-29.683 29.682v29.682m0-29.682h29.683m-29.683 29.682v29.682m0-29.682h29.683m-29.683 29.682v29.682m0-29.682h29.683m-29.683 29.682v29.683m0-29.683h29.683m-29.683 29.683v29.682m0-29.682h29.683m-29.683 29.682v29.682m0-29.682h29.683m-29.683 29.682v29.682m0-29.682h29.683m-29.683 29.682v29.682m0-29.682h29.683m-29.683 29.682v29.683m0-29.683h29.683m-29.683 29.683v29.682m0-29.682h29.683m-29.683 29.682v29.682m0-29.682h29.683m-29.683 29.682v29.682m0-29.682h29.683m-29.683 29.682v29.682m0-29.682h29.683m-29.683 29.682v29.683m0-29.683h29.683m-29.683 29.683v29.682m0-29.682h29.683m-29.683 29.682v29.682m0-29.682h29.683m-29.683 29.682v29.682m0-29.682h29.683m-29.683 29.682v29.682m0-29.682h29.683m-29.683 29.682v29.683m0-29.683h29.683m-29.683 29.683h29.683m0-593.644v29.682m0-29.682h29.682m-29.682 29.682v29.682m0-29.682h29.682m-29.682 29.682v29.682m0-29.682h29.682m-29.682 29.682v29.682m0-29.682h29.682m-29.682 29.682v29.683m0-29.683h29.682m-29.682 29.683v29.682m0-29.682h29.682m-29.682 29.682v29.682m0-29.682h29.682m-29.682 29.682v29.682m0-29.682h29.682m-29.682 29.682v29.682m0-29.682h29.682m-29.682 29.682v29.683m0-29.683h29.682m-29.682 29.683v29.682m0-29.682h29.682m-29.682 29.682v29.682m0-29.682h29.682m-29.682 29.682v29.682m0-29.682h29.682m-29.682 29.682v29.682m0-29.682h29.682m-29.682 29.682v29.683m0-29.683h29.682m-29.682 29.683v29.682m0-29.682h29.682m-29.682 29.682v29.682m0-29.682h29.682m-29.682 29.682v29.682m0-29.682h29.682m-29.682 29.682v29.682m0-29.682h29.682m-29.682 29.682v29.683m0-29.683h29.682m-29.682 29.683h29.682m0-593.644v29.682m0-29.682h29.682m-29.682 29.682v29.682m0-29.682h29.682m-29.682 29.682v29.682m0-29.682h29.682m-29.682 29.682v29.682m0-29.682h29.682m-29.682 29.682v29.683m0-29.683h29.682m-29.682 29.683v29.682m0-29.682h29.682m-29.682 29.682v29.682m0-29.682h29.682m-29.682 29.682v29.682m0-29.682h29.682m-29.682 29.682v29.682m0-29.682h29.682m-29.682 29.682v29.683m0-29.683h29.682m-29.682 29.683v29.682m0-29.682h29.682m-29.682 29.682v29.682m0-29.682h29.682m-29.682 29.682v29.682m0-29.682h29.682m-29.682 29.682v29.682m0-29.682h29.682m-29.682 29.682v29.683m0-29.683h29.682m-29.682 29.683v29.682m0-29.682h29.682m-29.682 29.682v29.682m0-29.682h29.682m-29.682 29.682v29.682m0-29.682h29.682m-29.682 29.682v29.682m0-29.682h29.682m-29.682 29.682v29.683m0-29.683h29.682m-29.682 29.683h29.682m0-593.644v29.682m0-29.682h29.682m-29.682 29.682v29.682m0-29.682h29.682m-29.682 29.682v29.682m0-29.682h29.682m-29.682 29.682v29.682m0-29.682h29.682m-29.682 29.682v29.683m0-29.683h29.682m-29.682 29.683v29.682m0-29.682h29.682m-29.682 29.682v29.682m0-29.682h29.682m-29.682 29.682v29.682m0-29.682h29.682m-29.682 29.682v29.682m0-29.682h29.682m-29.682 29.682v29.683m0-29.683h29.682m-29.682 29.683v29.682m0-29.682h29.682m-29.682 29.682v29.682m0-29.682h29.682m-29.682 29.682v29.682m0-29.682h29.682m-29.682 29.682v29.682m0-29.682h29.682m-29.682 29.682v29.683m0-29.683h29.682m-29.682 29.683v29.682m0-29.682h29.682m-29.682 29.682v29.682m0-29.682h29.682m-29.682 29.682v29.682m0-29.682h29.682m-29.682 29.682v29.682m0-29.682h29.682m-29.682 29.682v29.683m0-29.683h29.682m-29.682 29.683h29.682m0-593.644v29.682m0-29.682h29.682m-29.682 29.682v29.682m0-29.682h29.682m-29.682 29.682v29.682m0-29.682h29.682m-29.682 29.682v29.682m0-29.682h29.682m-29.682 29.682v29.683m0-29.683h29.682m-29.682 29.683v29.682m0-29.682h29.682m-29.682 29.682v29.682m0-29.682h29.682m-29.682 29.682v29.682m0-29.682h29.682m-29.682 29.682v29.682m0-29.682h29.682m-29.682 29.682v29.683m0-29.683h29.682m-29.682 29.683v29.682m0-29.682h29.682m-29.682 29.682v29.682m0-29.682h29.682m-29.682 29.682v29.682m0-29.682h29.682m-29.682 29.682v29.682m0-29.682h29.682m-29.682 29.682v29.683m0-29.683h29.682m-29.682 29.683v29.682m0-29.682h29.682m-29.682 29.682v29.682m0-29.682h29.682m-29.682 29.682v29.682m0-29.682h29.682m-29.682 29.682v29.682m0-29.682h29.682m-29.682 29.682v29.683m0-29.683h29.682m-29.682 29.683h29.682m0-593.644v29.682m0-29.682h29.683m-29.683 29.682v29.682m0-29.682h29.683M-98.362-9.731v29.682m0-29.682h29.683m-29.683 29.682v29.682m0-29.682h29.683m-29.683 29.682v29.683m0-29.683h29.683m-29.683 29.683v29.682m0-29.682h29.683m-29.683 29.682v29.682m0-29.682h29.683m-29.683 29.682v29.682m0-29.682h29.683m-29.683 29.682v29.682m0-29.682h29.683m-29.683 29.682v29.683m0-29.683h29.683m-29.683 29.683v29.682m0-29.682h29.683m-29.683 29.682v29.682m0-29.682h29.683m-29.683 29.682v29.682m0-29.682h29.683m-29.683 29.682v29.682m0-29.682h29.683m-29.683 29.682v29.683m0-29.683h29.683m-29.683 29.683v29.682m0-29.682h29.683m-29.683 29.682v29.682m0-29.682h29.683m-29.683 29.682v29.682m0-29.682h29.683m-29.683 29.682v29.682m0-29.682h29.683m-29.683 29.682v29.683m0-29.683h29.683m-29.683 29.683h29.683m0-593.644v29.682m0-29.682h29.682m-29.682 29.682v29.682m0-29.682h29.682M-68.678-9.731v29.682m0-29.682h29.682m-29.682 29.682v29.682m0-29.682h29.682m-29.682 29.682v29.683m0-29.683h29.682m-29.682 29.683v29.682m0-29.682h29.682m-29.682 29.682v29.682m0-29.682h29.682m-29.682 29.682v29.682m0-29.682h29.682m-29.682 29.682v29.682m0-29.682h29.682m-29.682 29.682v29.683m0-29.683h29.682m-29.682 29.683v29.682m0-29.682h29.682m-29.682 29.682v29.682m0-29.682h29.682m-29.682 29.682v29.682m0-29.682h29.682m-29.682 29.682v29.682m0-29.682h29.682m-29.682 29.682v29.683m0-29.683h29.682m-29.682 29.683v29.682m0-29.682h29.682m-29.682 29.682v29.682m0-29.682h29.682m-29.682 29.682v29.682m0-29.682h29.682m-29.682 29.682v29.682m0-29.682h29.682m-29.682 29.682v29.683m0-29.683h29.682m-29.682 29.683h29.682m0-593.644v29.682m0-29.682h29.682m-29.682 29.682v29.682m0-29.682h29.682M-38.996-9.731v29.682m0-29.682h29.682m-29.682 29.682v29.682m0-29.682h29.682m-29.682 29.682v29.683m0-29.683h29.682m-29.682 29.683v29.682m0-29.682h29.682m-29.682 29.682v29.682m0-29.682h29.682m-29.682 29.682v29.682m0-29.682h29.682m-29.682 29.682v29.682m0-29.682h29.682m-29.682 29.682v29.683m0-29.683h29.682m-29.682 29.683v29.682m0-29.682h29.682m-29.682 29.682v29.682m0-29.682h29.682m-29.682 29.682v29.682m0-29.682h29.682m-29.682 29.682v29.682m0-29.682h29.682m-29.682 29.682v29.683m0-29.683h29.682m-29.682 29.683v29.682m0-29.682h29.682m-29.682 29.682v29.682m0-29.682h29.682m-29.682 29.682v29.682m0-29.682h29.682m-29.682 29.682v29.682m0-29.682h29.682m-29.682 29.682v29.683m0-29.683h29.682m-29.682 29.683h29.682m0-593.644v29.682m0-29.682h29.682M-9.314-39.413v29.682m0-29.682h29.682M-9.314-9.731v29.682m0-29.682h29.682M-9.314 19.951v29.682m0-29.682h29.682M-9.314 49.633v29.683m0-29.683h29.682M-9.314 79.316v29.682m0-29.682h29.682m-29.682 29.682v29.682m0-29.682h29.682M-9.314 138.68v29.682m0-29.682h29.682m-29.682 29.682v29.682m0-29.682h29.682m-29.682 29.682v29.683m0-29.683h29.682m-29.682 29.683v29.682m0-29.682h29.682m-29.682 29.682v29.682m0-29.682h29.682m-29.682 29.682v29.682m0-29.682h29.682m-29.682 29.682v29.682m0-29.682h29.682m-29.682 29.682v29.683m0-29.683h29.682m-29.682 29.683v29.682m0-29.682h29.682M-9.314 405.82v29.682m0-29.682h29.682m-29.682 29.682v29.682m0-29.682h29.682m-29.682 29.682v29.682m0-29.682h29.682m-29.682 29.682v29.683m0-29.683h29.682m-29.682 29.683h29.682m0-593.644v29.682m0-29.682H50.05M20.368-39.413v29.682m0-29.682H50.05M20.368-9.731v29.682m0-29.682H50.05M20.368 19.951v29.682m0-29.682H50.05M20.368 49.633v29.683m0-29.683H50.05M20.368 79.316v29.682m0-29.682H50.05m-29.682 29.682v29.682m0-29.682H50.05M20.368 138.68v29.682m0-29.682H50.05m-29.682 29.682v29.682m0-29.682H50.05m-29.682 29.682v29.683m0-29.683H50.05m-29.682 29.683v29.682m0-29.682H50.05m-29.682 29.682v29.682m0-29.682H50.05m-29.682 29.682v29.682m0-29.682H50.05m-29.682 29.682v29.682m0-29.682H50.05m-29.682 29.682v29.683m0-29.683H50.05m-29.682 29.683v29.682m0-29.682H50.05M20.368 405.82v29.682m0-29.682H50.05m-29.682 29.682v29.682m0-29.682H50.05m-29.682 29.682v29.682m0-29.682H50.05m-29.682 29.682v29.683m0-29.683H50.05m-29.682 29.683H50.05m0-593.644v29.682m0-29.682h29.682M50.05-39.413v29.682m0-29.682h29.682M50.05-9.731v29.682m0-29.682h29.682M50.05 19.951v29.682m0-29.682h29.682M50.05 49.633v29.683m0-29.683h29.682M50.05 79.316v29.682m0-29.682h29.682M50.05 108.998v29.682m0-29.682h29.682M50.05 138.68v29.682m0-29.682h29.682M50.05 168.362v29.682m0-29.682h29.682M50.05 198.044v29.683m0-29.683h29.682M50.05 227.727v29.682m0-29.682h29.682M50.05 257.409v29.682m0-29.682h29.682M50.05 287.091v29.682m0-29.682h29.682M50.05 316.773v29.682m0-29.682h29.682M50.05 346.455v29.683m0-29.683h29.682M50.05 376.138v29.682m0-29.682h29.682M50.05 405.82v29.682m0-29.682h29.682M50.05 435.502v29.682m0-29.682h29.682M50.05 465.184v29.682m0-29.682h29.682M50.05 494.866v29.683m0-29.683h29.682M50.05 524.549h29.682m0-593.644v29.682m0-29.682h29.683M79.732-39.413v29.682m0-29.682h29.683M79.732-9.731v29.682m0-29.682h29.683M79.732 19.951v29.682m0-29.682h29.683M79.732 49.633v29.683m0-29.683h29.683M79.732 79.316v29.682m0-29.682h29.683m-29.683 29.682v29.682m0-29.682h29.683M79.732 138.68v29.682m0-29.682h29.683m-29.683 29.682v29.682m0-29.682h29.683m-29.683 29.682v29.683m0-29.683h29.683m-29.683 29.683v29.682m0-29.682h29.683m-29.683 29.682v29.682m0-29.682h29.683m-29.683 29.682v29.682m0-29.682h29.683m-29.683 29.682v29.682m0-29.682h29.683m-29.683 29.682v29.683m0-29.683h29.683m-29.683 29.683v29.682m0-29.682h29.683M79.732 405.82v29.682m0-29.682h29.683m-29.683 29.682v29.682m0-29.682h29.683m-29.683 29.682v29.682m0-29.682h29.683m-29.683 29.682v29.683m0-29.683h29.683m-29.683 29.683h29.683m0-593.644v29.682m0-29.682h29.682m-29.682 29.682v29.682m0-29.682h29.682M109.415-9.731v29.682m0-29.682h29.682m-29.682 29.682v29.682m0-29.682h29.682m-29.682 29.682v29.683m0-29.683h29.682m-29.682 29.683v29.682m0-29.682h29.682m-29.682 29.682v29.682m0-29.682h29.682m-29.682 29.682v29.682m0-29.682h29.682m-29.682 29.682v29.682m0-29.682h29.682m-29.682 29.682v29.683m0-29.683h29.682m-29.682 29.683v29.682m0-29.682h29.682m-29.682 29.682v29.682m0-29.682h29.682m-29.682 29.682v29.682m0-29.682h29.682m-29.682 29.682v29.682m0-29.682h29.682m-29.682 29.682v29.683m0-29.683h29.682m-29.682 29.683v29.682m0-29.682h29.682m-29.682 29.682v29.682m0-29.682h29.682m-29.682 29.682v29.682m0-29.682h29.682m-29.682 29.682v29.682m0-29.682h29.682m-29.682 29.682v29.683m0-29.683h29.682m-29.682 29.683h29.682m0-593.644v29.682m0-29.682h29.682m-29.682 29.682v29.682m0-29.682h29.682M139.097-9.731v29.682m0-29.682h29.682m-29.682 29.682v29.682m0-29.682h29.682m-29.682 29.682v29.683m0-29.683h29.682m-29.682 29.683v29.682m0-29.682h29.682m-29.682 29.682v29.682m0-29.682h29.682m-29.682 29.682v29.682m0-29.682h29.682m-29.682 29.682v29.682m0-29.682h29.682m-29.682 29.682v29.683m0-29.683h29.682m-29.682 29.683v29.682m0-29.682h29.682m-29.682 29.682v29.682m0-29.682h29.682m-29.682 29.682v29.682m0-29.682h29.682m-29.682 29.682v29.682m0-29.682h29.682m-29.682 29.682v29.683m0-29.683h29.682m-29.682 29.683v29.682m0-29.682h29.682m-29.682 29.682v29.682m0-29.682h29.682m-29.682 29.682v29.682m0-29.682h29.682m-29.682 29.682v29.682m0-29.682h29.682m-29.682 29.682v29.683m0-29.683h29.682m-29.682 29.683h29.682m0-593.644v29.682m0-29.682h29.682m-29.682 29.682v29.682m0-29.682h29.682M168.779-9.731v29.682m0-29.682h29.682m-29.682 29.682v29.682m0-29.682h29.682m-29.682 29.682v29.683m0-29.683h29.682m-29.682 29.683v29.682m0-29.682h29.682m-29.682 29.682v29.682m0-29.682h29.682m-29.682 29.682v29.682m0-29.682h29.682m-29.682 29.682v29.682m0-29.682h29.682m-29.682 29.682v29.683m0-29.683h29.682m-29.682 29.683v29.682m0-29.682h29.682m-29.682 29.682v29.682m0-29.682h29.682m-29.682 29.682v29.682m0-29.682h29.682m-29.682 29.682v29.682m0-29.682h29.682m-29.682 29.682v29.683m0-29.683h29.682m-29.682 29.683v29.682m0-29.682h29.682m-29.682 29.682v29.682m0-29.682h29.682m-29.682 29.682v29.682m0-29.682h29.682m-29.682 29.682v29.682m0-29.682h29.682m-29.682 29.682v29.683m0-29.683h29.682m-29.682 29.683h29.682m0-593.644v29.682m0-29.682h29.682m-29.682 29.682v29.682m0-29.682h29.682M198.461-9.731v29.682m0-29.682h29.682m-29.682 29.682v29.682m0-29.682h29.682m-29.682 29.682v29.683m0-29.683h29.682m-29.682 29.683v29.682m0-29.682h29.682m-29.682 29.682v29.682m0-29.682h29.682m-29.682 29.682v29.682m0-29.682h29.682m-29.682 29.682v29.682m0-29.682h29.682m-29.682 29.682v29.683m0-29.683h29.682m-29.682 29.683v29.682m0-29.682h29.682m-29.682 29.682v29.682m0-29.682h29.682m-29.682 29.682v29.682m0-29.682h29.682m-29.682 29.682v29.682m0-29.682h29.682m-29.682 29.682v29.683m0-29.683h29.682m-29.682 29.683v29.682m0-29.682h29.682m-29.682 29.682v29.682m0-29.682h29.682m-29.682 29.682v29.682m0-29.682h29.682m-29.682 29.682v29.682m0-29.682h29.682m-29.682 29.682v29.683m0-29.683h29.682m-29.682 29.683h29.682m0-593.644v29.682m0-29.682h29.683m-29.683 29.682v29.682m0-29.682h29.683M228.143-9.731v29.682m0-29.682h29.683m-29.683 29.682v29.682m0-29.682h29.683m-29.683 29.682v29.683m0-29.683h29.683m-29.683 29.683v29.682m0-29.682h29.683m-29.683 29.682v29.682m0-29.682h29.683m-29.683 29.682v29.682m0-29.682h29.683m-29.683 29.682v29.682m0-29.682h29.683m-29.683 29.682v29.683m0-29.683h29.683m-29.683 29.683v29.682m0-29.682h29.683m-29.683 29.682v29.682m0-29.682h29.683m-29.683 29.682v29.682m0-29.682h29.683m-29.683 29.682v29.682m0-29.682h29.683m-29.683 29.682v29.683m0-29.683h29.683m-29.683 29.683v29.682m0-29.682h29.683m-29.683 29.682v29.682m0-29.682h29.683m-29.683 29.682v29.682m0-29.682h29.683m-29.683 29.682v29.682m0-29.682h29.683m-29.683 29.682v29.683m0-29.683h29.683m-29.683 29.683h29.683m0-593.644v29.682m0-29.682h29.682m-29.682 29.682v29.682m0-29.682h29.682M257.826-9.731v29.682m0-29.682h29.682m-29.682 29.682v29.682m0-29.682h29.682m-29.682 29.682v29.683m0-29.683h29.682m-29.682 29.683v29.682m0-29.682h29.682m-29.682 29.682v29.682m0-29.682h29.682m-29.682 29.682v29.682m0-29.682h29.682m-29.682 29.682v29.682m0-29.682h29.682m-29.682 29.682v29.683m0-29.683h29.682m-29.682 29.683v29.682m0-29.682h29.682m-29.682 29.682v29.682m0-29.682h29.682m-29.682 29.682v29.682m0-29.682h29.682m-29.682 29.682v29.682m0-29.682h29.682m-29.682 29.682v29.683m0-29.683h29.682m-29.682 29.683v29.682m0-29.682h29.682m-29.682 29.682v29.682m0-29.682h29.682m-29.682 29.682v29.682m0-29.682h29.682m-29.682 29.682v29.682m0-29.682h29.682m-29.682 29.682v29.683m0-29.683h29.682m-29.682 29.683h29.682m0-593.644v29.682m0-29.682h29.682m-29.682 29.682v29.682m0-29.682h29.682M287.508-9.731v29.682m0-29.682h29.682m-29.682 29.682v29.682m0-29.682h29.682m-29.682 29.682v29.683m0-29.683h29.682m-29.682 29.683v29.682m0-29.682h29.682m-29.682 29.682v29.682m0-29.682h29.682m-29.682 29.682v29.682m0-29.682h29.682m-29.682 29.682v29.682m0-29.682h29.682m-29.682 29.682v29.683m0-29.683h29.682m-29.682 29.683v29.682m0-29.682h29.682m-29.682 29.682v29.682m0-29.682h29.682m-29.682 29.682v29.682m0-29.682h29.682m-29.682 29.682v29.682m0-29.682h29.682m-29.682 29.682v29.683m0-29.683h29.682m-29.682 29.683v29.682m0-29.682h29.682m-29.682 29.682v29.682m0-29.682h29.682m-29.682 29.682v29.682m0-29.682h29.682m-29.682 29.682v29.682m0-29.682h29.682m-29.682 29.682v29.683m0-29.683h29.682m-29.682 29.683h29.682m0-593.644v29.682m0-29.682h29.682M317.19-39.413v29.682m0-29.682h29.682M317.19-9.731v29.682m0-29.682h29.682M317.19 19.951v29.682m0-29.682h29.682M317.19 49.633v29.683m0-29.683h29.682M317.19 79.316v29.682m0-29.682h29.682m-29.682 29.682v29.682m0-29.682h29.682M317.19 138.68v29.682m0-29.682h29.682m-29.682 29.682v29.682m0-29.682h29.682m-29.682 29.682v29.683m0-29.683h29.682m-29.682 29.683v29.682m0-29.682h29.682m-29.682 29.682v29.682m0-29.682h29.682m-29.682 29.682v29.682m0-29.682h29.682m-29.682 29.682v29.682m0-29.682h29.682m-29.682 29.682v29.683m0-29.683h29.682m-29.682 29.683v29.682m0-29.682h29.682M317.19 405.82v29.682m0-29.682h29.682m-29.682 29.682v29.682m0-29.682h29.682m-29.682 29.682v29.682m0-29.682h29.682m-29.682 29.682v29.683m0-29.683h29.682m-29.682 29.683h29.682m0-593.644v29.682m0-29.682h29.682m-29.682 29.682v29.682m0-29.682h29.682M346.872-9.731v29.682m0-29.682h29.682m-29.682 29.682v29.682m0-29.682h29.682m-29.682 29.682v29.683m0-29.683h29.682m-29.682 29.683v29.682m0-29.682h29.682m-29.682 29.682v29.682m0-29.682h29.682m-29.682 29.682v29.682m0-29.682h29.682m-29.682 29.682v29.682m0-29.682h29.682m-29.682 29.682v29.683m0-29.683h29.682m-29.682 29.683v29.682m0-29.682h29.682m-29.682 29.682v29.682m0-29.682h29.682m-29.682 29.682v29.682m0-29.682h29.682m-29.682 29.682v29.682m0-29.682h29.682m-29.682 29.682v29.683m0-29.683h29.682m-29.682 29.683v29.682m0-29.682h29.682m-29.682 29.682v29.682m0-29.682h29.682m-29.682 29.682v29.682m0-29.682h29.682m-29.682 29.682v29.682m0-29.682h29.682m-29.682 29.682v29.683m0-29.683h29.682m-29.682 29.683h29.682m0-593.644v29.682m0-29.682h29.683m-29.683 29.682v29.682m0-29.682h29.683M376.554-9.731v29.682m0-29.682h29.683m-29.683 29.682v29.682m0-29.682h29.683m-29.683 29.682v29.683m0-29.683h29.683m-29.683 29.683v29.682m0-29.682h29.683m-29.683 29.682v29.682m0-29.682h29.683m-29.683 29.682v29.682m0-29.682h29.683m-29.683 29.682v29.682m0-29.682h29.683m-29.683 29.682v29.683m0-29.683h29.683m-29.683 29.683v29.682m0-29.682h29.683m-29.683 29.682v29.682m0-29.682h29.683m-29.683 29.682v29.682m0-29.682h29.683m-29.683 29.682v29.682m0-29.682h29.683m-29.683 29.682v29.683m0-29.683h29.683m-29.683 29.683v29.682m0-29.682h29.683m-29.683 29.682v29.682m0-29.682h29.683m-29.683 29.682v29.682m0-29.682h29.683m-29.683 29.682v29.682m0-29.682h29.683m-29.683 29.682v29.683m0-29.683h29.683m-29.683 29.683h29.683m0-593.644v29.682m0-29.682h29.682v29.682m-29.682 0v29.682m0-29.682h29.682M406.237-9.731v29.682m0-29.682h29.682m-29.682 29.682v29.682m0-29.682h29.682m-29.682 29.682v29.683m0-29.683h29.682m-29.682 29.683v29.682m0-29.682h29.682m-29.682 29.682v29.682m0-29.682h29.682m-29.682 29.682v29.682m0-29.682h29.682m-29.682 29.682v29.682m0-29.682h29.682m-29.682 29.682v29.683m0-29.683h29.682m-29.682 29.683v29.682m0-29.682h29.682m-29.682 29.682v29.682m0-29.682h29.682m-29.682 29.682v29.682m0-29.682h29.682m-29.682 29.682v29.682m0-29.682h29.682m-29.682 29.682v29.683m0-29.683h29.682m-29.682 29.683v29.682m0-29.682h29.682m-29.682 29.682v29.682m0-29.682h29.682m-29.682 29.682v29.682m0-29.682h29.682m-29.682 29.682v29.682m0-29.682h29.682m-29.682 29.682v29.683m0-29.683h29.682m-29.682 29.683h29.682v-29.683m0-534.279v29.682m0 0v29.682m0 0v29.682m0 0v29.683m0 0v29.682m0 0v29.682m0 0v29.682m0 0v29.682m0 0v29.683m0 0v29.682m0 0v29.682m0 0v29.682m0 0v29.682m0 0v29.683m0 0v29.682m0 0v29.682m0 0v29.682m0 0v29.682" opacity=".7" style="mix-blend-mode:soft-light"></path><path stroke="url(#e)" stroke-opacity=".6" stroke-width="1.611" d="M-751.367 40.729v8.904m0 0v8.905m0-8.905h-8.904m8.904 0h8.905m-8.905 228.553v8.905m0 0v8.905m0-8.905h-8.904m8.904 0h8.905m-8.905 228.553v8.904m0 0v8.905m0-8.905h-8.904m8.904 0h8.905m228.553-483.82v8.905m0 0v8.905m0-8.905h-8.905m8.905 0h8.905m-8.905 228.553v8.905m0 0v8.905m0-8.905h-8.905m8.905 0h8.905m-8.905 228.553v8.904m0 0v8.905m0-8.905h-8.905m8.905 0h8.905m228.552-483.82v8.905m0 0v8.905m0-8.905h-8.904m8.904 0h8.905m-8.905 228.553v8.905m0 0v8.905m0-8.905h-8.904m8.904 0h8.905m-8.905 228.553v8.904m0 0v8.905m0-8.905h-8.904m8.904 0h8.905m228.553-483.82v8.905m0 0v8.905m0-8.905h-8.905m8.905 0h8.905m-8.905 228.553v8.905m0 0v8.905m0-8.905h-8.905m8.905 0h8.905m-8.905 228.553v8.904m0 0v8.905m0-8.905h-8.905m8.905 0h8.905m228.552-483.82v8.905m0 0v8.905m0-8.905h-8.904m8.904 0h8.905m-8.905 228.553v8.905m0 0v8.905m0-8.905h-8.904m8.904 0h8.905m-8.905 228.553v8.904m0 0v8.905m0-8.905h-8.904m8.904 0h8.905m228.553-483.82v8.905m0 0v8.905m0-8.905h-8.905m8.905 0h8.905m-8.905 228.553v8.905m0 0v8.905m0-8.905h-8.905m8.905 0h8.905m-8.905 228.553v8.904m0 0v8.905m0-8.905h-8.905m8.905 0h8.905M-751.367-78v8.905m0 0v8.904m0-8.904h-8.904m8.904 0h8.905m-8.905 228.553v8.904m0 0v8.905m0-8.905h-8.904m8.904 0h8.905m-8.905 228.553v8.905m0 0v8.904m0-8.904h-8.904m8.904 0h8.905M-513.909-78v8.905m0 0v8.904m0-8.904h-8.905m8.905 0h8.905m-8.905 228.553v8.904m0 0v8.905m0-8.905h-8.905m8.905 0h8.905m-8.905 228.553v8.905m0 0v8.904m0-8.904h-8.905m8.905 0h8.905M-276.452-78v8.905m0 0v8.904m0-8.904h-8.904m8.904 0h8.905m-8.905 228.553v8.904m0 0v8.905m0-8.905h-8.904m8.904 0h8.905m-8.905 228.553v8.905m0 0v8.904m0-8.904h-8.904m8.904 0h8.905M-38.994-78v8.905m0 0v8.904m0-8.904h-8.905m8.905 0h8.905m-8.905 228.553v8.904m0 0v8.905m0-8.905h-8.905m8.905 0h8.905m-8.905 228.553v8.905m0 0v8.904m0-8.904h-8.905m8.905 0h8.905M198.463-78v8.905m0 0v8.904m0-8.904h-8.904m8.904 0h8.905m-8.905 228.553v8.904m0 0v8.905m0-8.905h-8.904m8.904 0h8.905m-8.905 228.553v8.905m0 0v8.904m0-8.904h-8.904m8.904 0h8.905M435.921-78v8.905m0 0v8.904m0-8.904h-8.905m8.905 0h8.905m-8.905 228.553v8.904m0 0v8.905m0-8.905h-8.905m8.905 0h8.905m-8.905 228.553v8.905m0 0v8.904m0-8.904h-8.905m8.905 0h8.905M-870.095 40.729v8.904m0 0v8.905m0-8.905H-879m8.905 0h8.904m-8.904 228.553v8.905m0 0v8.905m0-8.905H-879m8.905 0h8.904m-8.904 228.553v8.904m0 0v8.905m0-8.905H-879m8.905 0h8.904m228.553-483.82v8.905m0 0v8.905m0-8.905h-8.904m8.904 0h8.905m-8.905 228.553v8.905m0 0v8.905m0-8.905h-8.904m8.904 0h8.905m-8.905 228.553v8.904m0 0v8.905m0-8.905h-8.904m8.904 0h8.905m228.553-483.82v8.905m0 0v8.905m0-8.905h-8.905m8.905 0h8.904m-8.904 228.553v8.905m0 0v8.905m0-8.905h-8.905m8.905 0h8.904m-8.904 228.553v8.904m0 0v8.905m0-8.905h-8.905m8.905 0h8.904m228.553-483.82v8.905m0 0v8.905m0-8.905h-8.904m8.904 0h8.905m-8.905 228.553v8.905m0 0v8.905m0-8.905h-8.904m8.904 0h8.905m-8.905 228.553v8.904m0 0v8.905m0-8.905h-8.904m8.904 0h8.905M79.735 40.728v8.905m0 0v8.905m0-8.905H70.83m8.905 0h8.904m-8.904 228.553v8.905m0 0v8.905m0-8.905H70.83m8.905 0h8.904m-8.904 228.553v8.904m0 0v8.905m0-8.905H70.83m8.905 0h8.904m228.553-483.82v8.905m0 0v8.905m0-8.905h-8.904m8.904 0h8.905m-8.905 228.553v8.905m0 0v8.905m0-8.905h-8.904m8.904 0h8.905m-8.905 228.553v8.904m0 0v8.905m0-8.905h-8.904m8.904 0h8.905M-870.095-78v8.905m0 0v8.904m0-8.904H-879m8.905 0h8.904m-8.904 228.553v8.904m0 0v8.905m0-8.905H-879m8.905 0h8.904m-8.904 228.553v8.905m0 0v8.904m0-8.904H-879m8.905 0h8.904M-632.638-78v8.905m0 0v8.904m0-8.904h-8.904m8.904 0h8.905m-8.905 228.553v8.904m0 0v8.905m0-8.905h-8.904m8.904 0h8.905m-8.905 228.553v8.905m0 0v8.904m0-8.904h-8.904m8.904 0h8.905M-395.18-78v8.905m0 0v8.904m0-8.904h-8.905m8.905 0h8.904m-8.904 228.553v8.904m0 0v8.905m0-8.905h-8.905m8.905 0h8.904m-8.904 228.553v8.905m0 0v8.904m0-8.904h-8.905m8.905 0h8.904M-157.723-78v8.905m0 0v8.904m0-8.904h-8.904m8.904 0h8.905m-8.905 228.553v8.904m0 0v8.905m0-8.905h-8.904m8.904 0h8.905m-8.905 228.553v8.905m0 0v8.904m0-8.904h-8.904m8.904 0h8.905M79.735-78v8.905m0 0v8.904m0-8.904H70.83m8.905 0h8.904m-8.904 228.553v8.904m0 0v8.905m0-8.905H70.83m8.905 0h8.904m-8.904 228.553v8.905m0 0v8.904m0-8.904H70.83m8.905 0h8.904M317.192-78v8.905m0 0v8.904m0-8.904h-8.904m8.904 0h8.905m-8.905 228.553v8.904m0 0v8.905m0-8.905h-8.904m8.904 0h8.905m-8.905 228.553v8.905m0 0v8.904m0-8.904h-8.904m8.904 0h8.905" opacity=".8" style="mix-blend-mode:soft-light"></path></g><defs><radialGradient id="b" cx="0" cy="0" r="1" gradientTransform="matrix(0 296.822 -653.008 0 1656.91 227.727)" gradientUnits="userSpaceOnUse"><stop stop-color="#fff"></stop><stop offset="1" stop-color="#fff" stop-opacity="0"></stop></radialGradient><radialGradient id="c" cx="0" cy="0" r="1" gradientTransform="matrix(0 305.726 -661.913 0 1656.91 227.726)" gradientUnits="userSpaceOnUse"><stop stop-color="#fff"></stop><stop offset="1" stop-color="#fff" stop-opacity="0"></stop></radialGradient><radialGradient id="d" cx="0" cy="0" r="1" gradientTransform="matrix(0 296.822 -653.008 0 -217.089 227.727)" gradientUnits="userSpaceOnUse"><stop stop-color="#fff"></stop><stop offset="1" stop-color="#fff" stop-opacity="0"></stop></radialGradient><radialGradient id="e" cx="0" cy="0" r="1" gradientTransform="matrix(0 305.726 -661.913 0 -217.087 227.726)" gradientUnits="userSpaceOnUse"><stop stop-color="#fff"></stop><stop offset="1" stop-color="#fff" stop-opacity="0"></stop></radialGradient><clipPath id="a"><path fill="#fff" d="M0 0h1440v821H0V0Z"></path></clipPath></defs></svg> 